<svg width="26" height="27" viewBox="0 0 26 27" fill="none" xmlns="http://www.w3.org/2000/svg">
<g clip-path="url(#clip0)">
<path d="M18.0634 16.1333H7.93596C7.53394 16.1333 7.21094 16.4927 7.21094 16.895V24.9078H18.7885V16.895C18.7885 16.4927 18.4655 16.1333 18.0634 16.1333ZM16.8447 23.0798H9.15465C8.88544 23.0798 8.66717 22.8615 8.66717 22.5923C8.66717 22.3231 8.88544 22.1049 9.15465 22.1049H16.8447C17.114 22.1049 17.3322 22.3231 17.3322 22.5923C17.3322 22.8615 17.114 23.0798 16.8447 23.0798ZM16.8447 21.1299H9.15465C8.88544 21.1299 8.66717 20.9116 8.66717 20.6424C8.66717 20.3732 8.88544 20.155 9.15465 20.155H16.8447C17.114 20.155 17.3322 20.3732 17.3322 20.6424C17.3322 20.9116 17.114 21.1299 16.8447 21.1299ZM16.8447 19.18H9.15465C8.88544 19.18 8.66717 18.9617 8.66717 18.6925C8.66717 18.4233 8.88544 18.2051 9.15465 18.2051H16.8447C17.114 18.2051 17.3322 18.4233 17.3322 18.6925C17.3322 18.9617 17.114 19.18 16.8447 19.18Z" fill="#C23A3A"/>
<path d="M6.84612 5.40894H4.29902C3.88866 5.4206 3.56066 5.75407 3.55566 6.16443V7.23697H6.84612V5.40894Z" fill="#C23A3A"/>
<path d="M18.1791 3.11755C18.1741 2.7072 17.8462 2.37372 17.4358 2.36206H8.56366C8.15331 2.37372 7.82531 2.7072 7.82031 3.11755V7.23681H18.1791V3.11755Z" fill="#C23A3A"/>
<path d="M22.4438 6.16443C22.4388 5.75407 22.1108 5.4206 21.7004 5.40894H19.1533V7.23697H22.4438V6.16443Z" fill="#C23A3A"/>
<path d="M23.907 8.21197H2.09248C1.57834 8.20793 1.08373 8.40882 0.717884 8.77014C0.35204 9.13123 0.144958 9.62346 0.142578 10.1376V18.065C0.142578 19.1375 1.01994 20.0332 2.09248 20.0332H6.23601V16.8951C6.23601 15.9568 6.99769 15.1585 7.93598 15.1585H18.0635C19.0018 15.1585 19.7634 15.9506 19.7634 16.8951V20.0332H23.907C24.9869 20.0237 25.8573 19.1452 25.8569 18.065V10.1376C25.8545 9.62346 25.6474 9.13123 25.2816 8.77014C24.9157 8.40882 24.4211 8.20793 23.907 8.21197ZM7.39376 12.1118H3.00649C2.73729 12.1118 2.51902 11.8935 2.51902 11.6243C2.51902 11.3551 2.73729 11.1368 3.00649 11.1368H7.39376C7.66297 11.1368 7.88124 11.3551 7.88124 11.6243C7.88124 11.8935 7.66297 12.1118 7.39376 12.1118Z" fill="#C23A3A"/>
</g>
<defs>
<clipPath id="clip0">
<rect width="25.7143" height="25.7143" fill="white" transform="translate(0.142578 0.777832)"/>
</clipPath>
</defs>
</svg>
