<svg width="24" height="26" viewBox="0 0 24 26" fill="none" xmlns="http://www.w3.org/2000/svg">
<path d="M3.03711 23.0742H5.48155V24.7038C5.48155 24.9288 5.29915 25.1112 5.07415 25.1112H3.44452C3.21951 25.1112 3.03711 24.9288 3.03711 24.7038V23.0742Z" fill="#C23A3A"/>
<path d="M18.5176 23.0742H20.962V24.7038C20.962 24.9288 20.7796 25.1112 20.5546 25.1112H18.925C18.7 25.1112 18.5176 24.9288 18.5176 24.7038V23.0742Z" fill="#C23A3A"/>
<path d="M12.8134 5.55566H11.1838C10.9588 5.55566 10.7764 5.73807 10.7764 5.96307V6.77789C10.7764 7.00289 10.9588 7.18529 11.1838 7.18529H12.8134C13.0384 7.18529 13.2208 7.00289 13.2208 6.77789V5.96307C13.2208 5.73807 13.0384 5.55566 12.8134 5.55566Z" fill="#C23A3A"/>
<path d="M15.6657 0.666748H8.33239C7.88238 0.666748 7.51758 1.03155 7.51758 1.48156V3.92601C7.51758 4.37602 7.88238 4.74082 8.33239 4.74082H15.6657C16.1157 4.74082 16.4805 4.37602 16.4805 3.92601V1.48156C16.4805 1.03155 16.1157 0.666748 15.6657 0.666748ZM14.3254 2.99304L13.9179 3.40045C13.8014 3.51797 13.6253 3.5533 13.4725 3.48983C13.3196 3.42635 13.2203 3.27671 13.2213 3.11119H9.96202C9.73702 3.11119 9.55461 2.92879 9.55461 2.70379C9.55461 2.47878 9.73702 2.29638 9.96202 2.29638H13.2213C13.2207 2.18809 13.2632 2.084 13.3394 2.00712C13.4159 1.92999 13.5201 1.88661 13.6287 1.88661C13.7373 1.88661 13.8414 1.92999 13.9179 2.00712L14.3254 2.41453C14.4025 2.49102 14.4459 2.59516 14.4459 2.70379C14.4459 2.81242 14.4025 2.91655 14.3254 2.99304Z" fill="#C23A3A"/>
<path d="M6.87032 16.5232L8.05181 16.014L6.75625 14.5188L5.39551 16.0262L6.54032 16.5192C6.64563 16.5633 6.76396 16.5648 6.87032 16.5232Z" fill="#C23A3A"/>
<path d="M16.979 13.6059C16.8219 13.6728 16.6526 13.7061 16.4819 13.7037C16.3181 13.7033 16.156 13.6701 16.0053 13.6059L14.6608 13.0314L13.9071 13.9155L17.9812 18.7351C18.1274 18.9061 18.1074 19.1633 17.9364 19.3096C17.7654 19.4558 17.5082 19.4358 17.3619 19.2648L13.4712 14.6407L12.0941 15.2355C11.9354 15.3017 11.765 15.3349 11.593 15.3333C11.4292 15.333 11.2671 15.2997 11.1164 15.2355L9.77599 14.6611L8.88784 15.7407L11.4912 18.7392C11.628 18.9091 11.6068 19.1565 11.443 19.3006C11.2793 19.4447 11.0311 19.4343 10.8801 19.277L8.61488 16.6696L7.18488 17.2807C7.03231 17.3427 6.86879 17.3731 6.70414 17.3703C6.5403 17.37 6.3782 17.3368 6.22747 17.2725L4.82192 16.6696L2.22266 19.5622V19.8148C2.22266 20.0398 2.40506 20.2222 2.63006 20.2222H21.3708C21.5958 20.2222 21.7782 20.0398 21.7782 19.8148V17.0566L18.3601 13.0151L16.979 13.6059Z" fill="#C23A3A"/>
<path d="M11.7757 14.4861L12.9205 13.9932L11.6413 12.4817L10.3457 14.0135L11.4498 14.4861C11.5537 14.5315 11.6718 14.5315 11.7757 14.4861Z" fill="#C23A3A"/>
<path d="M21.3708 8.81494H2.63006C2.40506 8.81494 2.22266 8.99734 2.22266 9.22235V18.3442L6.14192 13.9809C6.30112 13.8135 6.52202 13.7187 6.75303 13.7187C6.98404 13.7187 7.20494 13.8135 7.36414 13.9809L8.33377 15.1094L11.0227 11.952C11.1813 11.7835 11.4024 11.688 11.6338 11.688C11.8652 11.688 12.0863 11.7835 12.2449 11.952L13.3897 13.2964L15.9115 10.3223C16.0701 10.1539 16.2913 10.0583 16.5227 10.0583C16.7541 10.0583 16.9752 10.1539 17.1338 10.3223L21.7782 15.7938V9.22235C21.7782 8.99734 21.5958 8.81494 21.3708 8.81494Z" fill="#C23A3A"/>
<path d="M16.6637 12.8565L17.8085 12.3635L16.5293 10.8521L15.2256 12.3798L16.3337 12.8565C16.4388 12.903 16.5587 12.903 16.6637 12.8565Z" fill="#C23A3A"/>
<path d="M22.1846 6.77783H1.8142C0.91418 6.77783 0.18457 7.50744 0.18457 8.40746V20.6297C0.18457 21.5297 0.91418 22.2593 1.8142 22.2593H22.1846C23.0846 22.2593 23.8142 21.5297 23.8142 20.6297V8.40746C23.8142 7.50744 23.0846 6.77783 22.1846 6.77783ZM22.592 19.8149C22.592 20.4899 22.0448 21.0371 21.3698 21.0371H2.62901C1.954 21.0371 1.40679 20.4899 1.40679 19.8149V9.22228C1.40679 8.54726 1.954 8.00005 2.62901 8.00005H21.3698C22.0448 8.00005 22.592 8.54726 22.592 9.22228V19.8149Z" fill="#C23A3A"/>
</svg>
