<svg width="32" height="18" viewBox="0 0 32 18" fill="none" xmlns="http://www.w3.org/2000/svg">
<path d="M12.9133 3.19418C14.5724 3.66036 16.038 4.25254 17.455 4.8251C21.5182 6.4677 25.027 7.88502 31.0909 5.34644C31.1415 5.32545 31.1914 5.30465 31.2406 5.28467C31.2996 5.26069 31.3468 5.23569 31.3991 5.19941C31.6041 5.05741 31.7479 4.82649 31.7479 4.57713V3.2751C31.7479 1.6153 30.4024 0.269775 28.7426 0.269775H1.52201C0.703542 0.269775 0.0400391 0.933278 0.0400391 1.75175C0.0400391 2.83179 1.16868 3.56606 2.20389 3.25809C4.62981 2.53639 8.45178 1.94207 12.9133 3.19418Z" fill="#C23A3A"/>
<path d="M31.7484 6.23206C31.7484 6.23206 31.7483 6.23207 31.7483 6.23208C31.7209 6.24069 31.6946 6.24757 31.6694 6.2529C31.6188 6.2636 31.5679 6.27474 31.5202 6.29483C31.5116 6.29847 31.5028 6.30218 31.4937 6.30599C28.9624 7.36584 26.828 7.77003 24.9222 7.77003C21.9641 7.77003 19.5579 6.79653 17.0653 5.78933C15.6744 5.22686 14.2362 4.64586 12.6322 4.19571C8.66516 3.082 5.19698 3.53315 2.89287 4.1571C1.08517 4.64663 0.0410156 6.39636 0.0410156 8.26917V12.4388C0.0410156 15.2002 2.27959 17.4388 5.04102 17.4388H26.7488C29.5103 17.4388 31.7488 15.2002 31.7488 12.4388V6.23249C31.7488 6.23225 31.7486 6.23206 31.7484 6.23206ZM4.84413 11.1067C4.17477 11.7761 3.08944 11.7762 2.42005 11.1067C1.7507 10.4374 1.75071 9.35213 2.42007 8.68278C3.08946 8.01339 4.17475 8.01342 4.84411 8.68284C5.51338 9.35218 5.51339 10.4373 4.84413 11.1067ZM19.059 10.7972H8.50415C8.00579 10.7972 7.60179 10.3931 7.60179 9.89479C7.60179 9.39643 8.00579 8.99243 8.50415 8.99243H18.1567C18.6551 8.99243 19.0591 9.39643 19.0591 9.89479V10.7971C19.0591 10.7971 19.059 10.7972 19.059 10.7972ZM30.6082 15.878C30.6082 16.1294 30.4044 16.3332 30.153 16.3332H24.1591C23.9077 16.3332 23.7038 16.1294 23.7038 15.878C23.7038 15.6266 23.9077 15.4227 24.1591 15.4227H30.153C30.4044 15.4227 30.6082 15.6266 30.6082 15.878ZM30.6082 14.0569C30.6082 14.3083 30.4044 14.5122 30.153 14.5122H24.1591C23.9077 14.5122 23.7038 14.3083 23.7038 14.0569C23.7038 13.8055 23.9077 13.6017 24.1591 13.6017H30.153C30.4044 13.6017 30.6082 13.8055 30.6082 14.0569ZM30.6082 12.236C30.6082 12.4874 30.4044 12.6912 30.153 12.6912H24.1591C23.9077 12.6912 23.7038 12.4874 23.7038 12.236C23.7038 11.9846 23.9077 11.7808 24.1591 11.7808H30.153C30.4044 11.7808 30.6082 11.9846 30.6082 12.236Z" fill="#C23A3A"/>
</svg>
