<svg width="27" height="27" viewBox="0 0 27 27" fill="none" xmlns="http://www.w3.org/2000/svg">
<g clip-path="url(#clip0)">
<path d="M3.7207 22.5027H18.4656V24.3036H3.7207V22.5027Z" fill="#C23A3A"/>
<path d="M23.3085 7.74663H21.5023V3.26904H0.682617V10.5589C0.682617 12.45 1.2554 14.2689 2.339 15.8188C3.24246 17.1109 3.71991 18.6273 3.71991 20.204V20.9772H18.4648V20.204C18.4648 19.6334 18.5284 19.071 18.6509 18.524H23.3085C25.1865 18.524 26.7144 16.9961 26.7144 15.1183V11.1525C26.7144 9.27451 25.1865 7.74663 23.3085 7.74663ZM13.6502 14.5203C12.8626 15.3078 11.8495 15.7107 10.8846 15.7107C10.0733 15.7107 9.29598 15.4259 8.71545 14.8454C7.44457 13.5743 7.59035 11.3607 9.04057 9.91064C9.72616 9.22485 10.6036 8.8052 11.511 8.72873C12.4665 8.6481 13.3422 8.95237 13.9751 9.58552C15.2462 10.8564 15.1003 13.0701 13.6502 14.5203ZM25.1877 15.1181C25.1877 16.1544 24.3446 16.9973 23.3085 16.9973H19.1693C19.3584 16.5884 19.5836 16.194 19.846 15.8188C20.9296 14.2691 21.5023 12.4502 21.5023 10.5589V9.27331H23.3085C24.3448 9.27331 25.1877 10.1162 25.1877 11.1525V15.1181Z" fill="#C23A3A"/>
<path d="M12.9343 11.5663C12.7024 11.6302 12.586 11.6626 12.382 11.8664C12.1782 12.0701 12.1459 12.1867 12.0819 12.4187C11.9959 12.7295 11.8783 13.1553 11.3896 13.6439C11.1175 13.9162 10.8649 14.0731 10.6406 14.1736C11.2698 14.2611 12.0058 14.0061 12.5713 13.4407C13.1544 12.8576 13.4072 12.0932 13.295 11.4517C13.1627 11.5027 13.0416 11.5367 12.9343 11.5663Z" fill="#C23A3A"/>
<path d="M12.0467 10.259C11.9685 10.2483 11.8878 10.2429 11.8054 10.2429C11.7508 10.2429 11.6954 10.2453 11.6392 10.2501C11.0904 10.2963 10.5508 10.5591 10.1198 10.9901C9.53692 11.573 9.28389 12.3374 9.3961 12.9791C9.52857 12.9281 9.64972 12.8941 9.75697 12.8645C9.98894 12.8004 10.1055 12.7682 10.3093 12.5644C10.5133 12.3605 10.5454 12.2441 10.6096 12.0121C10.6954 11.7011 10.8132 11.2755 11.3017 10.7869C11.5724 10.5162 11.8237 10.3595 12.0467 10.259Z" fill="#C23A3A"/>
</g>
<defs>
<clipPath id="clip0">
<rect width="26.0317" height="26.0317" fill="white" transform="translate(0.682617 0.777832)"/>
</clipPath>
</defs>
</svg>
