<svg width="22" height="31" viewBox="0 0 22 31" fill="none" xmlns="http://www.w3.org/2000/svg">
<path d="M0.389648 0.873047V30.0794H21.2925V0.873047H0.389648ZM20.3617 29.0907H1.31995V1.86175H20.3617V29.0907ZM6.42569 6.19429H6.0465C6.05447 6.13927 6.07424 6.09579 6.10546 6.06375C6.13659 6.03162 6.18053 6.01569 6.23674 6.01569C6.28892 6.01569 6.33231 6.03107 6.36729 6.06137C6.40299 6.09149 6.42203 6.13543 6.42569 6.19429ZM6.16616 11.7483C5.94965 11.7483 5.77708 11.6687 5.64791 11.5091C5.51901 11.3494 5.45484 11.1224 5.45484 10.828C5.45484 10.5332 5.5191 10.3064 5.64791 10.1466C5.77708 9.98698 5.94965 9.90734 6.16616 9.90734C6.38221 9.90734 6.55404 9.98744 6.68129 10.1475C6.80827 10.3078 6.87198 10.5346 6.87198 10.828C6.87198 11.1225 6.80827 11.3494 6.68129 11.5091C6.55413 11.6687 6.38266 11.7483 6.16616 11.7483ZM19.373 2.85046H2.30865V28.1021H19.373V2.85046ZM17.5809 13.4163V14.2834H3.86293V13.4163H17.5809ZM4.91197 10.8279C4.91197 10.3488 5.04443 9.98937 5.30928 9.74915C5.50674 9.54591 5.79228 9.44402 6.16616 9.44402C6.53985 9.44402 6.82566 9.54591 7.02285 9.74915C7.28614 9.98937 7.41824 10.3488 7.41824 10.8279C7.41824 11.2974 7.28623 11.6568 7.02285 11.9064C6.82566 12.1097 6.53985 12.2115 6.16616 12.2115C5.79228 12.2115 5.50674 12.1097 5.30928 11.9064C5.04443 11.6568 4.91197 11.2969 4.91197 10.8279ZM7.82663 12.1384V9.52376H8.39889L9.43712 11.347V9.52376H9.9464V12.1384H9.40014L8.33563 10.2831V12.1384H7.82663ZM10.4145 12.1384V9.52376H10.9579V12.1384H10.4145ZM12.1208 11.5432C12.2677 11.6767 12.4346 11.7435 12.621 11.7435C12.8045 11.7435 12.9555 11.6909 13.0719 11.5856C13.1887 11.4804 13.2617 11.3422 13.2882 11.1723H12.6828V10.7355H13.7719V12.1384H13.4098L13.3558 11.8121C13.2496 11.9356 13.1558 12.0228 13.0718 12.0737C12.927 12.1616 12.7498 12.206 12.5398 12.206C12.1937 12.206 11.9098 12.086 11.6882 11.8463C11.4574 11.6049 11.3426 11.2752 11.3426 10.8569C11.3426 10.4336 11.4593 10.0946 11.692 9.83969C11.9252 9.58455 12.2332 9.45702 12.6161 9.45702C12.9482 9.45702 13.2147 9.54106 13.4165 9.70951C13.6182 9.87795 13.7341 10.0882 13.7631 10.3403H13.2253C13.1838 10.1618 13.0833 10.0369 12.9221 9.96611C12.8324 9.92693 12.732 9.90761 12.6233 9.90761C12.4123 9.90761 12.239 9.98726 12.1033 10.1459C11.9686 10.3047 11.9006 10.5435 11.9006 10.8618C11.9007 11.1822 11.9742 11.4097 12.1208 11.5432ZM15.8498 10.5209V9.52376H16.3929V12.1384H15.8498V10.9711H14.8332V12.1384H14.2896V9.52376H14.8332V10.5209H15.8498ZM17.4849 12.1384V9.98698H16.6984V9.52376H18.8168V9.98698H18.0347V12.1384H17.4849ZM8.33572 5.88871H8.56962V6.1195H8.33572V5.88871ZM8.33572 6.46756H8.56962V6.69853H8.33572V6.46756ZM7.76292 5.86418V5.62936H7.98089V5.86418H8.11775V6.02081H7.98089V6.46564C7.98089 6.50015 7.98519 6.52139 7.99416 6.5299C8.00313 6.53842 8.02996 6.54272 8.07481 6.54272C8.08131 6.54272 8.08855 6.54272 8.09605 6.54226C8.10356 6.54226 8.11079 6.54181 8.11775 6.54126V6.70641L8.01348 6.71053C7.90966 6.71391 7.83853 6.69606 7.80036 6.6567C7.77573 6.63134 7.76346 6.59225 7.76346 6.53988V6.02191H7.64619V5.86418H7.76292ZM6.76771 5.85804H6.98083V5.98072C7.00884 5.93769 7.03567 5.9062 7.06094 5.88725C7.10579 5.85319 7.16301 5.83625 7.23231 5.83625C7.31891 5.83625 7.38949 5.85896 7.44497 5.90437C7.49972 5.94996 7.52746 6.02548 7.52746 6.13149V6.69853H7.30198V6.18624C7.30198 6.14184 7.29603 6.10806 7.28413 6.08444C7.26289 6.04095 7.22187 6.01971 7.16154 6.01971C7.08739 6.01971 7.03649 6.05139 7.00875 6.11465C6.99447 6.14825 6.98751 6.19072 6.98751 6.24254V6.69853H6.76762L6.76771 5.85804ZM5.93564 5.95105C6.01291 5.87351 6.11306 5.83452 6.23665 5.83452C6.30998 5.83452 6.37616 5.84779 6.43503 5.87406C6.49371 5.90015 6.54223 5.94162 6.58031 5.99866C6.61483 6.04837 6.63707 6.10678 6.64742 6.17241C6.65346 6.21105 6.65584 6.26698 6.65492 6.33967H6.04202C6.04541 6.42417 6.07461 6.48349 6.1299 6.51709C6.1635 6.53833 6.20406 6.54876 6.25157 6.54876C6.30155 6.54876 6.34257 6.53595 6.37369 6.51013C6.3909 6.4964 6.40583 6.47708 6.4191 6.45246H6.64403C6.63799 6.50244 6.61098 6.55334 6.56246 6.60452C6.48694 6.68654 6.38166 6.7271 6.24553 6.7271C6.13329 6.7271 6.03451 6.69258 5.9491 6.62328C5.86332 6.55426 5.82048 6.44211 5.82048 6.2863C5.82002 6.14046 5.85865 6.02869 5.93564 5.95105ZM5.17049 5.85667L5.34599 6.47754L5.52487 5.85667H5.76125L5.45731 6.69863H5.22487L4.92295 5.85667H5.17049ZM3.97608 5.55997H4.81099V5.76174H4.20852V6.00342H4.76156V6.20107H4.20852V6.49383H4.83882V6.69853H3.97608V5.55997ZM3.86293 7.484H17.5809V8.35104H3.86293V7.484ZM2.63593 9.52376H4.75359V9.98698H3.97178V12.1384H3.42195V9.98698H2.63602L2.63593 9.52376ZM4.26629 17.89L4.77245 16.3313L5.27861 17.89H6.91757L5.5917 18.8532L6.09786 20.4115L4.77199 19.4488L3.4463 20.4116L3.95246 18.8533L2.6265 17.8901L4.26629 17.89ZM6.13045 27.4445C4.58322 27.4445 3.32894 26.1903 3.32894 24.643C3.32894 23.0957 4.58322 21.8415 6.13045 21.8415C7.67768 21.8415 8.93197 23.0957 8.93197 24.643C8.93197 26.1903 7.67768 27.4445 6.13045 27.4445ZM13.7719 20.2764H7.91012V19.782H13.7719V20.2764ZM13.7719 18.7933H7.91012V18.299H13.7719V18.7933ZM13.7719 17.3103H7.91012V16.816H13.7719V17.3103ZM18.2124 20.4116L16.8867 19.4489L15.5601 20.4116L16.0666 18.8533L14.7404 17.8901H16.3788L16.8848 16.3314L17.3907 17.8901H19.0297L17.7035 18.8533L18.2124 20.4116ZM7.35791 23.174L4.24358 24.966L3.99686 24.5372L7.11119 22.7452L7.35791 23.174ZM7.81025 23.9633L4.69592 25.7548L4.4492 25.3266L7.56353 23.5345L7.81025 23.9633ZM8.02053 24.3229L8.2667 24.7516L5.15063 26.5407L4.90446 26.112L8.02053 24.3229Z" fill="#C23A3A"/>
</svg>
