<svg width="35" height="35" viewBox="0 0 35 35" fill="none" xmlns="http://www.w3.org/2000/svg">
<path d="M14.8467 25.8889H15.8983V31.1469H14.8467V25.8889Z" fill="#C23A3A"/>
<path d="M19.0537 26.0725H20.1053V33.2501H19.0537V26.0725Z" fill="#C23A3A"/>
<path d="M23.2593 23.26H11.6918C11.4014 23.26 11.166 23.4954 11.166 23.7858V24.8374C11.166 25.1278 11.4014 25.3632 11.6918 25.3632H23.2593C23.5497 25.3632 23.7851 25.1278 23.7851 24.8374V23.7858C23.7851 23.4954 23.5497 23.26 23.2593 23.26Z" fill="#C23A3A"/>
<path d="M16.8659 19.5742C16.7841 19.5605 16.7066 19.5276 16.6399 19.4783C16.5732 19.4289 16.5191 19.3645 16.4821 19.2902L16.0982 18.5278H15.8984V22.2084H19.0532V18.5278H18.2172L17.3233 19.4269C17.2635 19.485 17.1911 19.5284 17.1118 19.554C17.0325 19.5795 16.9483 19.5864 16.8659 19.5742Z" fill="#C23A3A"/>
<path d="M14.8473 18.0019C14.8473 17.8624 14.9027 17.7287 15.0013 17.6301C15.0999 17.5315 15.2337 17.4761 15.3731 17.4761H16.4247C16.5221 17.475 16.6178 17.5016 16.7006 17.5528C16.7835 17.604 16.8501 17.6777 16.8927 17.7653L17.0925 18.1649L17.6288 17.6286C17.729 17.5317 17.8627 17.4771 18.0021 17.4761H19.5795C19.7189 17.4761 19.8526 17.5315 19.9513 17.6301C20.0499 17.7287 20.1053 17.8624 20.1053 18.0019V22.2082H22.2084V13.2697C22.2084 12.0147 21.7099 10.8111 20.8224 9.92361C19.935 9.03616 18.7313 8.5376 17.4763 8.5376C16.2212 8.5376 15.0176 9.03616 14.1302 9.92361C13.2427 10.8111 12.7441 12.0147 12.7441 13.2697V22.2082H14.8473V18.0019ZM13.2699 13.2697C13.2712 12.1545 13.7148 11.0854 14.5033 10.2968C15.2919 9.50821 16.3611 9.06464 17.4763 9.06339V10.115C16.6398 10.1158 15.8379 10.4485 15.2465 11.0399C14.655 11.6314 14.3224 12.4333 14.3215 13.2697H13.2699Z" fill="#C23A3A"/>
<path d="M16.9502 1.70239H18.0018V4.85715H16.9502V1.70239Z" fill="#C23A3A"/>
<path d="M5.94922 6.69482L6.6928 5.95124L8.92355 8.18199L8.17997 8.92558L5.94922 6.69482Z" fill="#C23A3A"/>
<path d="M1.70215 16.9504H4.85691V18.002H1.70215V16.9504Z" fill="#C23A3A"/>
<path d="M30.0947 16.9504H33.2495V18.002H30.0947V16.9504Z" fill="#C23A3A"/>
<path d="M26.0234 8.18335L28.2542 5.95259L28.9978 6.69618L26.767 8.92693L26.0234 8.18335Z" fill="#C23A3A"/>
</svg>
