<svg width="194" height="283" viewBox="0 0 194 283" fill="none" xmlns="http://www.w3.org/2000/svg">
<path opacity="0.5" d="M94.4647 233.638L94.2528 233.332L93.8991 233.447C86.2713 235.929 78.0373 237.294 69.5609 237.294C66.6494 237.294 63.7486 237.169 60.9754 236.799L60.9425 236.794H60.9092H60.8097C58.043 236.546 55.2703 236.052 52.4881 235.432L52.4344 235.421H52.3794H52.2988C14.2409 229.084 -8.6634 195.018 -11.3382 155.982V155.75V60.344V59.2221L-12.1725 59.9722C-38.1079 83.2911 -54.5 117.391 -54.5 155.5C-54.5 225.696 1.03483 282.5 69.439 282.5C87.4244 282.5 104.556 278.613 119.975 271.464L120.515 271.214L120.176 270.726L94.4647 233.638ZM60.8648 28.8766L60.4092 28.9172V29.3746V73.7058V74.2524L60.9536 74.2039C63.758 73.9539 66.6616 73.7063 69.5609 73.7063C78.1609 73.7063 86.0266 74.947 94.014 77.6755L94.0325 77.6819L94.0515 77.6867L94.5179 77.8062C98.7568 79.2965 102.867 81.0323 106.731 83.1361L106.769 83.1564L106.809 83.1701L107.14 83.2833L107.832 83.6378C113.884 86.9879 119.451 91.081 124.412 95.9168C129.743 101.132 134.467 107.091 138.22 113.543L138.252 113.597L138.295 113.641L138.376 113.724C145.738 125.992 149.485 140.866 149.485 155.375C149.485 166.921 147.184 177.844 142.944 187.899L142.837 188.153L142.996 188.38L170.657 227.841L171.073 228.435L171.48 227.834C185.427 207.273 193.5 182.325 193.5 155.5C193.5 85.3046 138.087 28.5 69.5609 28.5C66.6225 28.5 63.6831 28.6255 60.8648 28.8766Z" fill="#212C4F" stroke="white"/>
<path opacity="0.5" d="M53.5018 163.594L54.4114 164.893V163.307V137.983V136.41L53.5032 137.695L44.5918 150.295L44.3886 150.582L44.5905 150.87L53.5018 163.594ZM92.1562 83.5256L91.8036 83.4082L91.5896 83.712L61.5595 126.33L61.4683 126.46V126.618V174.549V174.705L61.557 174.833L62.3227 175.94V176.067L62.4154 176.198L70.5919 187.683L70.5944 187.686L76.2073 195.712L76.2088 195.714L126.503 266.868L126.754 267.223L127.14 267.025C130.844 265.12 135.918 264.971 141.724 265.66C146.342 266.207 151.348 267.275 156.402 268.352C157.691 268.626 158.984 268.902 160.273 269.169C166.596 270.481 172.853 271.605 178.267 271.492C183.682 271.379 188.355 270.025 191.389 266.277L191.627 265.982L191.407 265.672L109.459 150.461L133.299 117.275L133.492 117.005L133.32 116.722C123.988 101.439 110.836 89.7436 92.1562 83.5256Z" fill="#B5191A" stroke="white"/>
<path opacity="0.5" d="M-5 0.5H-5.5V1V157.415V157.432L-5.49881 157.449C-2.83798 196 20.1606 223.559 52.8823 231.486L53.5 231.636V231V1V0.5H53H-5Z" fill="#B5191A" stroke="white"/>
</svg>
