<svg width="16" height="10" viewBox="0 0 16 10" fill="none" xmlns="http://www.w3.org/2000/svg">
<path d="M15.2445 8.41515C15.2057 8.34929 14.9658 7.82063 13.8111 6.73403C12.6022 5.59621 12.7646 5.78097 14.2206 3.81356C15.1074 2.61537 15.4619 1.88366 15.351 1.57085C15.2454 1.27267 14.5932 1.35133 14.5932 1.35133L12.4245 1.36414C12.4245 1.36414 12.264 1.34219 12.144 1.41444C12.0276 1.48579 11.9527 1.65042 11.9527 1.65042C11.9527 1.65042 11.609 2.57787 11.1507 3.3663C10.1846 5.03004 9.79758 5.11785 9.63971 5.01449C9.27255 4.77394 9.36456 4.0468 9.36456 3.53093C9.36456 1.91841 9.60543 1.24615 8.89456 1.07236C8.65821 1.01474 8.485 0.976327 7.88149 0.969924C7.10747 0.961693 6.45164 0.972668 6.08087 1.15651C5.83369 1.27907 5.64335 1.55255 5.75972 1.5681C5.90315 1.58731 6.22791 1.65682 6.40022 1.89463C6.62304 2.20104 6.61492 2.89068 6.61492 2.89068C6.61492 2.89068 6.74302 4.78857 6.31632 5.02455C6.02314 5.18644 5.62169 4.85626 4.76018 3.34618C4.31904 2.5733 3.98526 1.71811 3.98526 1.71811C3.98526 1.71811 3.92121 1.55896 3.80664 1.47389C3.66772 1.37054 3.47286 1.33761 3.47286 1.33761L1.41063 1.35042C1.41063 1.35042 1.10121 1.35956 0.987541 1.49585C0.886504 1.61749 0.979422 1.86811 0.979422 1.86811C0.979422 1.86811 2.5942 5.69773 4.42188 7.62855C6.09891 9.39839 8.00237 9.28223 8.00237 9.28223H8.86479C8.86479 9.28223 9.1255 9.25296 9.25811 9.10753C9.3808 8.974 9.37629 8.72338 9.37629 8.72338C9.37629 8.72338 9.35915 7.54989 9.89681 7.37702C10.4263 7.2069 11.1065 8.51118 11.8273 9.01333C12.3722 9.3929 12.7863 9.30967 12.7863 9.30967L14.7141 9.28223C14.7141 9.28223 15.7227 9.21912 15.2445 8.41515Z" fill="white"/>
</svg>
