<svg width="12" height="13" viewBox="0 0 12 13" fill="none" xmlns="http://www.w3.org/2000/svg">
<path d="M5.84974 4.05756C4.55976 4.05756 3.51025 5.12165 3.51025 6.42954C3.51025 7.73744 4.55976 8.80153 5.84974 8.80153C7.13971 8.80153 8.18922 7.73744 8.18922 6.42954C8.18922 5.12165 7.13979 4.05756 5.84974 4.05756Z" fill="white"/>
<path d="M10.3334 1.88392C9.60367 1.14409 8.63727 0.736694 7.61209 0.736694H4.08813C3.06295 0.736694 2.09646 1.14409 1.36685 1.88392C0.637164 2.62366 0.235352 3.60358 0.235352 4.643V8.21583C0.235352 9.25534 0.637164 10.2353 1.36685 10.975C2.09646 11.7148 3.06295 12.1222 4.08813 12.1222H7.61209C8.63727 12.1222 9.60376 11.7148 10.3334 10.975C11.063 10.2353 11.4649 9.25534 11.4649 8.21583V4.643C11.4649 3.60358 11.063 2.62366 10.3334 1.88392V1.88392ZM5.85011 9.44262C4.21141 9.44262 2.87823 8.09092 2.87823 6.42946C2.87823 4.768 4.21141 3.4163 5.85011 3.4163C7.4888 3.4163 8.82198 4.768 8.82198 6.42946C8.82198 8.09092 7.4888 9.44262 5.85011 9.44262V9.44262ZM9.1424 3.56318C9.08123 3.62521 8.99633 3.66082 8.9098 3.66082C8.82318 3.66082 8.73845 3.62521 8.67728 3.56318C8.61585 3.50108 8.58081 3.41508 8.58081 3.32726C8.58081 3.23944 8.61585 3.15336 8.67728 3.09134C8.73845 3.02923 8.82309 2.9937 8.9098 2.9937C8.99633 2.9937 9.08123 3.02923 9.1424 3.09134C9.20366 3.15336 9.23879 3.23944 9.23879 3.32726C9.23879 3.41499 9.20366 3.50108 9.1424 3.56318Z" fill="white"/>
</svg>
