<svg width="9" height="13" viewBox="0 0 9 13" fill="none" xmlns="http://www.w3.org/2000/svg">
<path d="M6.0132 3.70947C6.03121 3.69193 6.11544 3.6346 6.44621 3.6346L7.53071 3.63425C7.88352 3.63425 8.17042 3.38651 8.17042 3.08196V1.44578C8.17042 1.14175 7.88393 0.894015 7.53172 0.893494L5.92082 0.891235C4.92658 0.891235 4.08138 1.17433 3.47659 1.71002C2.87452 2.24328 2.55622 2.98771 2.55622 3.8627V4.74516H1.32389C0.971082 4.74516 0.684082 4.9929 0.684082 5.29745V7.05958C0.684082 7.36413 0.971082 7.61187 1.32389 7.61187H2.55622V11.7245C2.55622 12.029 2.84322 12.2768 3.19603 12.2768H5.30828C5.66109 12.2768 5.94809 12.029 5.94809 11.7245V7.61196H7.45443C7.80725 7.61196 8.09415 7.36413 8.09415 7.05976L8.09495 5.29753C8.09495 5.09748 7.96886 4.91238 7.76579 4.81448C7.6717 4.76914 7.56221 4.74516 7.4493 4.74516H5.94809V4.04799C5.94809 3.82075 5.98351 3.73849 6.0132 3.70947V3.70947Z" fill="white"/>
</svg>
