<svg width="14" height="10" viewBox="0 0 14 10" fill="none" xmlns="http://www.w3.org/2000/svg">
<path d="M4.36992 9.53056C9.22107 9.53056 11.874 5.88406 11.874 2.72209C11.874 2.61852 11.8716 2.51538 11.8665 2.41282C12.3814 2.07502 12.8289 1.65348 13.1821 1.17366C12.7095 1.36432 12.2009 1.49249 11.6675 1.55048C12.212 1.25412 12.6301 0.785504 12.8272 0.226875C12.3176 0.500982 11.7533 0.700126 11.1525 0.807686C10.6712 0.342566 9.98597 0.0516968 9.22728 0.0516968C7.77089 0.0516968 6.58972 1.12331 6.58972 2.44427C6.58972 2.63215 6.61291 2.81474 6.65812 2.98992C4.46614 2.88985 2.52235 1.93771 1.22169 0.489784C0.995283 0.843349 0.864628 1.25419 0.864628 1.69256C0.864628 2.52266 1.33025 3.25568 2.03825 3.68435C1.60556 3.6723 1.19913 3.56453 0.843795 3.38514C0.843402 3.3952 0.843402 3.40497 0.843402 3.41567C0.843402 4.57458 1.75249 5.5422 2.95944 5.76145C2.73775 5.81616 2.5045 5.84562 2.26394 5.84562C2.0943 5.84562 1.92889 5.8305 1.76821 5.80247C2.10397 6.75325 3.07767 7.44511 4.23203 7.46452C3.32931 8.10645 2.19217 8.48883 0.956291 8.48883C0.74372 8.48883 0.533587 8.47778 0.327148 8.45567C1.4944 9.13448 2.88043 9.53063 4.37 9.53063" fill="white"/>
</svg>
