<svg width="10" height="15" viewBox="0 0 10 15" fill="none" xmlns="http://www.w3.org/2000/svg">
<path d="M7.11845 3.71292C7.14251 3.6898 7.25502 3.61427 7.69686 3.61427L9.1455 3.61382C9.61677 3.61382 10 3.28743 10 2.8862V0.730591C10 0.330048 9.61731 0.00366211 9.14684 0.00297545L6.99505 0C5.66699 0 4.538 0.372963 3.73014 1.07872C2.92591 1.78127 2.50074 2.76203 2.50074 3.91479V5.0774H0.854639C0.383364 5.0774 0 5.40379 0 5.80502V8.12656C0 8.52779 0.383364 8.85418 0.854639 8.85418H2.50074V14.2724C2.50074 14.6736 2.8841 15 3.35538 15H6.17684C6.64812 15 7.03148 14.6736 7.03148 14.2724V8.85429H9.04361C9.51488 8.85429 9.89811 8.52779 9.89811 8.12679L9.89919 5.80513C9.89919 5.54157 9.73076 5.2977 9.4595 5.16872C9.33382 5.10899 9.18757 5.0774 9.03675 5.0774H7.03148V4.1589C7.03148 3.85952 7.0788 3.75114 7.11845 3.71292Z" fill="white"/>
</svg>
