<svg width="15" height="15" viewBox="0 0 15 15" fill="none" xmlns="http://www.w3.org/2000/svg">
<path d="M7.5 4.375C5.7769 4.375 4.375 5.7769 4.375 7.5C4.375 9.2231 5.7769 10.625 7.5 10.625C9.2231 10.625 10.625 9.2231 10.625 7.5C10.625 5.7769 9.22322 4.375 7.5 4.375Z" fill="white"/>
<path d="M13.4886 1.51142C12.5139 0.536728 11.223 0 9.85359 0H5.14641C3.77701 0 2.486 0.536728 1.51142 1.51142C0.536728 2.486 0 3.77701 0 5.14641V9.85348C0 11.223 0.536728 12.514 1.51142 13.4886C2.486 14.4633 3.77701 15 5.14641 15H9.85359C11.223 15 12.514 14.4633 13.4886 13.4886C14.4632 12.514 15 11.223 15 9.85348V5.14641C15 3.77701 14.4632 2.486 13.4886 1.51142ZM7.5 11.4697C5.31109 11.4697 3.53027 9.68891 3.53027 7.5C3.53027 5.31109 5.31109 3.53027 7.5 3.53027C9.68891 3.53027 11.4697 5.31109 11.4697 7.5C11.4697 9.68891 9.68891 11.4697 7.5 11.4697ZM11.8977 3.72379C11.816 3.8055 11.7026 3.85242 11.587 3.85242C11.4713 3.85242 11.3581 3.8055 11.2764 3.72379C11.1944 3.64197 11.1476 3.52867 11.1476 3.41297C11.1476 3.29727 11.1944 3.18386 11.2764 3.10215C11.3581 3.02032 11.4712 2.97352 11.587 2.97352C11.7026 2.97352 11.816 3.02032 11.8977 3.10215C11.9796 3.18386 12.0265 3.29727 12.0265 3.41297C12.0265 3.52856 11.9796 3.64197 11.8977 3.72379Z" fill="white"/>
</svg>
