<svg width="1395" height="681" viewBox="0 0 1395 681" fill="none" xmlns="http://www.w3.org/2000/svg">
<path d="M171.855 1.88672C178.417 1.88604 615.649 2.36615 1225.35 2.37878" stroke="white" stroke-width="2" stroke-dasharray="10 10"/>
<path d="M1224 2.5C1268.95 2.5 1312.07 20.358 1343.85 52.1454C1375.64 83.9328 1393.5 127.046 1393.5 172C1393.5 216.954 1375.64 260.067 1343.85 291.855C1312.07 323.642 1268.95 341.5 1224 341.5" stroke="white" stroke-dasharray="10 10"/>
<path d="M171 341.5C148.741 341.5 126.7 345.884 106.135 354.402C85.5705 362.921 66.8849 375.406 51.1454 391.145C35.4059 406.885 22.9206 425.57 14.4024 446.135C5.88424 466.7 1.5 488.741 1.5 511" stroke="white" stroke-dasharray="10 10"/>
<path d="M171 341.109C177.561 341.109 614.794 341.589 1224.49 341.601" stroke="white" stroke-width="2" stroke-dasharray="10 10"/>
</svg>
