
<svg width="1392" height="685" viewBox="0 0 1392 685" fill="none" xmlns="http://www.w3.org/2000/svg">
<path d="M172 1.10938C178.561 1.10869 615.794 1.58881 1225.49 1.60144" stroke="white" stroke-dasharray="10 10"/>
<path d="M1220.4 1.50105C1242.71 1.42268 1264.82 5.74924 1285.45 14.2326C1306.09 22.7159 1324.84 35.1892 1340.65 50.937C1356.45 66.6848 1368.99 85.3973 1377.54 106.001C1386.1 126.606 1390.5 148.696 1390.5 171.005C1390.5 193.315 1386.09 215.405 1377.54 236.009C1368.98 256.612 1356.44 275.324 1340.64 291.071C1324.83 306.817 1306.08 319.29 1285.44 327.772C1264.81 336.254 1242.7 340.579 1220.39 340.499" stroke="white" stroke-dasharray="10 10"/>
<path d="M176 340.5C149.813 340.5 123.982 346.568 100.533 358.227C77.0845 369.887 56.6565 386.821 40.8515 407.701C25.0465 428.581 14.2945 452.839 9.43905 478.572C4.58355 504.306 5.75662 530.814 12.8662 556.018" stroke="white" stroke-dasharray="10 10"/>
<path d="M172 340.109C178.561 340.109 615.794 340.589 1225.49 340.601" stroke="white" stroke-dasharray="10 10"/>
</svg>
