<svg width="249" height="281" viewBox="0 0 249 281" fill="none" xmlns="http://www.w3.org/2000/svg">
<path fill-rule="evenodd" clip-rule="evenodd" d="M124.354 32C121.435 32 118.516 32 115.597 32.2923V75.838C118.516 75.5458 121.435 75.2535 124.354 75.2535C133.111 75.2535 140.993 76.4225 149.166 79.0528H149.458C153.837 80.5141 157.924 82.2676 162.011 84.3134L162.302 84.6056C162.594 84.6056 162.886 84.8979 163.178 84.8979C169.308 88.1127 174.855 92.2042 180.109 97.1725C185.655 102.433 190.326 108.278 194.121 114.708V115C201.71 127.275 205.505 141.887 205.505 156.208C205.505 167.606 203.17 178.419 198.791 188.356L226.815 227.225C240.827 207.06 249 182.511 249 156.208C248.708 87.5282 192.953 32 124.354 32ZM149.166 233.655L175.147 270.187C159.675 277.201 142.453 281 124.354 281C55.755 281 0 225.18 0 156.5C0 119.092 16.347 85.4824 42.3271 62.6866V156.5V156.792C44.9543 195.37 68.3072 229.271 106.839 235.408C109.467 235.993 112.386 236.577 115.305 236.87C118.224 237.162 121.143 237.454 124.062 237.454C132.819 237.454 141.285 236.285 149.166 233.655Z" fill="#151E3C"/>
<path fill-rule="evenodd" clip-rule="evenodd" d="M145.581 88C165.048 94.0969 178.736 105.71 188.469 120.517L162.918 153.904L249 268.003C236.833 282.229 197.899 260.744 181.777 268.583L129.155 198.324L123.376 190.485L114.859 179.163L113.946 178.001V130.388L145.581 88ZM105.429 166.388L96 153.904L105.429 141.42V166.388Z" fill="#122042"/>
<path fill-rule="evenodd" clip-rule="evenodd" d="M48 0H112V225C76.0591 217.442 50.8374 190.407 48 152.907V0Z" fill="#122042"/>
</svg>
