<svg width="444" height="501" viewBox="0 0 444 501" fill="none" xmlns="http://www.w3.org/2000/svg">
<g opacity="0.02">
<path fill-rule="evenodd" clip-rule="evenodd" d="M221.713 57.8076C216.509 57.8076 211.304 57.8076 206.1 58.327V135.711C211.304 135.192 216.509 134.672 221.713 134.672C237.327 134.672 251.379 136.75 265.952 141.424H266.472C274.279 144.021 281.565 147.137 288.852 150.772L289.372 151.292C289.892 151.292 290.413 151.811 290.933 151.811C301.863 157.524 311.752 164.795 321.12 173.624C331.008 182.972 339.336 193.359 346.101 204.785V205.305C359.633 227.118 366.399 253.085 366.399 278.534C366.399 298.789 362.235 318.005 354.429 335.663L404.392 404.737C429.374 368.902 443.947 325.276 443.947 278.534C443.426 156.485 344.02 57.8076 221.713 57.8076ZM265.952 416.163L312.272 481.082C284.688 493.547 253.981 500.299 221.713 500.299C99.4066 500.299 0 401.102 0 279.053C0 212.576 29.1454 152.85 75.4657 112.34V279.053V279.572C80.1498 348.127 121.786 408.373 190.486 419.279C195.17 420.318 200.374 421.357 205.579 421.876C210.784 422.395 215.988 422.915 221.193 422.915C236.806 422.915 251.899 420.837 265.952 416.163Z" fill="#151E3C"/>
<path fill-rule="evenodd" clip-rule="evenodd" d="M259.558 157.323C294.267 168.158 318.671 188.795 336.025 215.108L290.47 274.44L443.947 477.201C422.254 502.482 352.837 464.303 324.094 478.233L230.273 353.377L219.969 339.447L204.784 319.326L203.157 317.262V232.649L259.558 157.323ZM187.972 296.625L171.16 274.44L187.972 252.255V296.625Z" fill="#122042"/>
<path fill-rule="evenodd" clip-rule="evenodd" d="M85.5801 0.940918H199.687V400.782C135.607 387.351 90.639 339.308 85.5801 272.668V0.940918Z" fill="#122042"/>
</g>
</svg>
