<svg width="197" height="79" viewBox="0 0 197 79" fill="none" xmlns="http://www.w3.org/2000/svg">
<path fill-rule="evenodd" clip-rule="evenodd" d="M161.207 8.88037C160.391 8.88037 159.574 8.88037 158.758 8.96199V21.1238C159.574 21.0422 160.391 20.9606 161.207 20.9606C163.656 20.9606 165.859 21.287 168.145 22.0217H168.226C169.451 22.4298 170.594 22.9195 171.736 23.4909L171.818 23.5725C171.899 23.5725 171.981 23.6541 172.063 23.6541C173.777 24.552 175.328 25.6947 176.797 27.0823C178.348 28.5515 179.654 30.1839 180.715 31.9796V32.0613C182.837 35.4894 183.898 39.5706 183.898 43.5701C183.898 46.7534 183.245 49.7734 182.021 52.5486L189.857 63.4044C193.774 57.7725 196.06 50.9161 196.06 43.5701C195.978 24.3887 180.388 8.88037 161.207 8.88037ZM168.145 65.2001L175.409 75.403C171.083 77.3619 166.268 78.423 161.207 78.423C142.026 78.423 126.436 62.8331 126.436 43.6517C126.436 33.204 131.006 23.8174 138.271 17.4508V43.6517V43.7333C139.005 54.5075 145.535 63.9758 156.31 65.6899C157.044 65.8531 157.86 66.0164 158.677 66.098C159.493 66.1796 160.309 66.2612 161.125 66.2612C163.574 66.2612 165.941 65.9347 168.145 65.2001Z" fill="white"/>
<path fill-rule="evenodd" clip-rule="evenodd" d="M167.575 23.8984C172.798 25.6125 176.471 28.8774 179.083 33.0402L172.227 42.4268L195.326 74.5046C192.061 78.5041 181.614 72.464 177.288 74.6678L163.167 54.9151L161.616 52.7113L159.331 49.528L159.086 49.2015V35.8154L167.575 23.8984ZM156.8 45.9366L154.27 42.4268L156.8 38.917V45.9366Z" fill="white"/>
<path fill-rule="evenodd" clip-rule="evenodd" d="M140.231 0.63623H156.8V63.8123C147.495 61.6901 140.966 54.0992 140.231 43.5698V0.63623Z" fill="white"/>
<path fill-rule="evenodd" clip-rule="evenodd" d="M15.4289 54.8338H6.12392V77.6066H0.736816V50.2629H15.4289V54.8338Z" fill="white"/>
<path fill-rule="evenodd" clip-rule="evenodd" d="M0.981845 77.3613H5.87922V54.6701H15.1842V50.5074H0.981845V77.3613ZM6.36895 77.851H0.57373V50.0992H15.674V55.1599H6.36895V77.851Z" fill="white"/>
<path fill-rule="evenodd" clip-rule="evenodd" d="M40.1622 63.9757C40.1622 58.4253 36.3259 54.5074 30.9388 54.5074C25.5517 54.5074 21.7154 58.4253 21.7154 63.9757C21.7154 69.526 25.5517 73.3623 30.9388 73.3623C36.3259 73.3623 40.1622 69.526 40.1622 63.9757ZM45.7125 63.9757C45.7125 72.3012 39.6724 78.2597 30.9388 78.2597C22.2051 78.2597 16.165 72.3012 16.165 63.9757C16.165 55.6501 22.2051 49.6917 30.9388 49.6917C39.6724 49.6917 45.7125 55.6501 45.7125 63.9757Z" fill="white"/>
<path fill-rule="evenodd" clip-rule="evenodd" d="M30.9389 54.7521C25.6334 54.7521 21.9604 58.5884 21.9604 63.9755C21.9604 69.3626 25.6334 73.1989 30.9389 73.1989C36.2444 73.1989 39.9174 69.4442 39.9174 63.9755C39.9174 58.5067 36.2444 54.7521 30.9389 54.7521ZM30.9389 73.607C28.2454 73.607 25.8783 72.6275 24.1642 70.9134C22.4502 69.1993 21.5523 66.669 21.5523 63.9755C21.5523 61.2003 22.4502 58.7516 24.1642 57.0375C25.8783 55.2418 28.2454 54.344 30.9389 54.344C33.6325 54.344 35.9995 55.3235 37.7136 57.0375C39.4277 58.8332 40.3256 61.2819 40.3256 63.9755C40.3256 66.669 39.4277 69.1993 37.7136 70.9134C35.9995 72.6275 33.6325 73.607 30.9389 73.607ZM30.9389 49.8547C39.5093 49.8547 45.4678 55.6499 45.4678 63.8939C45.4678 72.1378 39.5093 77.933 30.9389 77.933C22.3685 77.933 16.4101 72.1378 16.4101 63.8939C16.4101 55.6499 22.3685 49.8547 30.9389 49.8547ZM30.9389 78.4227C26.6945 78.4227 22.8583 76.9535 20.1647 74.3416C17.4712 71.7297 16.002 68.0566 16.002 63.8939C16.002 59.8127 17.4712 56.0581 20.1647 53.4461C22.8583 50.8342 26.6945 49.365 30.9389 49.365C35.1833 49.365 39.0196 50.8342 41.7131 53.4461C44.4067 56.0581 45.8759 59.8127 45.8759 63.8939C45.8759 67.975 44.4067 71.7297 41.7131 74.3416C39.0196 77.0351 35.1833 78.4227 30.9389 78.4227Z" fill="white"/>
<path fill-rule="evenodd" clip-rule="evenodd" d="M55.9953 62.9145H58.1991C59.2602 62.9145 60.5661 62.9145 61.7089 62.0166C62.6883 61.2004 63.1781 59.9761 63.1781 58.8333C63.1781 57.2825 62.4435 56.303 61.6272 55.7317C60.4845 54.9154 59.0969 54.8338 57.791 54.8338H55.9136V62.9145H55.9953ZM58.6888 50.2629C61.7905 50.2629 63.9127 50.5894 65.9533 52.3851C68.1571 54.4257 68.8101 57.0376 68.8101 58.9966C68.8101 60.0577 68.6468 62.9961 66.5246 65.1183C64.9738 66.6691 62.6883 67.567 59.505 67.567H55.9953V77.6882H50.6082V50.2629H58.6888Z" fill="white"/>
<path fill-rule="evenodd" clip-rule="evenodd" d="M56.2403 62.6692H58.1992C59.1787 62.6692 60.4847 62.6692 61.5458 61.8529C62.4436 61.2 62.9334 60.0572 62.9334 58.8329C62.9334 57.6085 62.4436 56.6291 61.4642 55.8945C60.4031 55.1599 59.0155 55.0782 57.7911 55.0782H56.1587V62.6692H56.2403ZM58.1992 63.0773H55.7506V54.6701H57.8727C59.2603 54.6701 60.6479 54.7517 61.7906 55.568C62.8517 56.3842 63.4231 57.5269 63.4231 58.8329C63.4231 60.1389 62.8517 61.4448 61.8723 62.1794C60.6479 63.0773 59.2603 63.0773 58.1992 63.0773ZM50.8532 77.3613V50.5074H58.689C61.7906 50.5074 63.8312 50.8338 65.7902 52.5479C68.1572 54.6701 68.5653 57.5269 68.5653 58.9961C68.5653 60.3837 68.2389 63.0773 66.3615 64.9546C64.8107 66.5054 62.4436 67.3217 59.5052 67.3217H55.8322V77.3613H50.8532ZM56.2403 77.851H50.4451V50.0992H58.689C61.8723 50.0992 64.0761 50.4257 66.1167 52.2214C68.647 54.5069 68.9735 57.4453 68.9735 58.9961C68.9735 60.4653 68.647 63.2405 66.6064 65.2811C64.9739 66.9135 62.5253 67.7298 59.4236 67.7298H56.1587V77.851H56.2403Z" fill="white"/>
<path fill-rule="evenodd" clip-rule="evenodd" d="M95.4192 63.9757C95.4192 58.4253 91.583 54.5074 86.1959 54.5074C80.8087 54.5074 76.9725 58.4253 76.9725 63.9757C76.9725 69.526 80.8087 73.3623 86.1959 73.3623C91.583 73.3623 95.4192 69.526 95.4192 63.9757ZM100.97 63.9757C100.97 72.3012 94.9295 78.2597 86.1959 78.2597C77.4622 78.2597 71.4221 72.3012 71.4221 63.9757C71.4221 55.6501 77.4622 49.6917 86.1959 49.6917C94.9295 49.6917 100.97 55.6501 100.97 63.9757Z" fill="white"/>
<path fill-rule="evenodd" clip-rule="evenodd" d="M86.196 54.7521C80.8905 54.7521 77.2175 58.5884 77.2175 63.9755C77.2175 69.3626 80.8905 73.1989 86.196 73.1989C91.5015 73.1989 95.1745 69.4442 95.1745 63.9755C95.1745 58.5067 91.5015 54.7521 86.196 54.7521ZM86.196 73.607C83.5025 73.607 81.1354 72.6275 79.4213 70.9134C77.7072 69.1993 76.8094 66.669 76.8094 63.9755C76.8094 61.2003 77.7072 58.7516 79.4213 57.0375C81.1354 55.2418 83.5025 54.344 86.196 54.344C88.8896 54.344 91.2566 55.3235 92.9707 57.0375C94.6848 58.8332 95.5826 61.2819 95.5826 63.9755C95.5826 66.669 94.6848 69.1993 92.9707 70.9134C91.2566 72.6275 88.8896 73.607 86.196 73.607ZM86.196 49.8547C94.7664 49.8547 100.725 55.6499 100.725 63.8939C100.725 72.1378 94.7664 77.933 86.196 77.933C77.6256 77.933 71.6671 72.1378 71.6671 63.8939C71.6671 55.6499 77.6256 49.8547 86.196 49.8547ZM86.196 78.4227C81.9516 78.4227 78.1154 76.9535 75.4218 74.3416C72.7282 71.7297 71.259 68.0566 71.259 63.8939C71.259 59.8127 72.7282 56.0581 75.4218 53.4461C78.1154 50.8342 81.9516 49.365 86.196 49.365C90.4404 49.365 94.2767 50.8342 96.9702 53.4461C99.6638 56.0581 101.133 59.8127 101.133 63.8939C101.133 67.975 99.6638 71.7297 96.9702 74.3416C94.2767 77.0351 90.4404 78.4227 86.196 78.4227Z" fill="white"/>
<path fill-rule="evenodd" clip-rule="evenodd" d="M109.621 72.7909L115.09 59.3231L120.151 72.7909H109.621ZM126.191 72.8725L117.131 50.5895H112.886L104.071 72.8725H102.112V77.6066H128.395V72.8725H126.191Z" fill="white"/>
<path fill-rule="evenodd" clip-rule="evenodd" d="M109.949 72.5461H119.825L115.091 59.9761L109.949 72.5461ZM120.478 72.9542H109.296L115.091 58.6702L120.478 72.9542ZM102.195 77.3618V73.1174H104.072L112.887 50.8344H116.887L125.947 73.1174H127.988V77.3618H102.195ZM128.477 77.8515H101.705V72.7093H103.746L112.643 50.4263H117.213L126.274 72.7093H128.477V77.8515Z" fill="white"/>
</svg>
