<svg width="9" height="9" viewBox="0 0 9 9" fill="none" xmlns="http://www.w3.org/2000/svg">
<g clip-path="url(#clip0)">
<path d="M8.99438 1.86108L5.83057 4.49561L8.99974 6.60475V1.92046C8.99974 1.90021 8.99765 1.88046 8.99438 1.86108Z" fill="#C23A3A"/>
<path d="M5.54555 4.73315L5.14672 5.06526C4.95935 5.22128 4.72968 5.29929 4.50002 5.29929C4.27036 5.29929 4.04067 5.22128 3.85332 5.06526L3.45449 4.73315L0 7.03218V7.07954C0 7.27573 0.159627 7.43535 0.355816 7.43535H8.64417C8.84035 7.43535 8.99998 7.27573 8.99998 7.07954V7.03218L5.54555 4.73315Z" fill="#C23A3A"/>
<path d="M8.64534 1.5647C8.6449 1.5647 8.64446 1.5647 8.64404 1.5647H0.355672C0.355233 1.5647 0.354811 1.5647 0.354372 1.5647C0.304133 1.56489 0.282389 1.62889 0.320991 1.66104L3.57788 4.37307C3.57827 4.37338 3.57866 4.37372 3.57904 4.37403L4.08085 4.79188C4.32364 4.99407 4.6761 4.99407 4.91888 4.79188L8.67872 1.66104C8.71732 1.62887 8.69556 1.56487 8.64534 1.5647Z" fill="#C23A3A"/>
<path d="M0.00536133 1.86108C0.0020918 1.88046 0 1.90018 0 1.92046V6.60475L3.16918 4.49559L0.00536133 1.86108Z" fill="#C23A3A"/>
</g>
<defs>
<clipPath id="clip0">
<rect width="9" height="9" fill="white"/>
</clipPath>
</defs>
</svg>
