<svg width="20" height="20" viewBox="0 0 20 20" fill="none" xmlns="http://www.w3.org/2000/svg">
<g clip-path="url(#clip0)">
<path d="M19.5904 4.13599L12.6992 9.99048L19.6021 14.6775V4.26794C19.6021 4.22294 19.5975 4.17903 19.5904 4.13599Z" fill="#808080"/>
<path d="M12.0789 10.5183L11.2102 11.2563C10.8021 11.603 10.3018 11.7764 9.80158 11.7764C9.30136 11.7764 8.80106 11.603 8.39299 11.2563L7.52429 10.5183L0 15.6273V15.7325C0 16.1685 0.347687 16.5232 0.775011 16.5232H18.828C19.2554 16.5232 19.603 16.1685 19.603 15.7325V15.6273L12.0789 10.5183Z" fill="#808080"/>
<path d="M18.8297 3.47729C18.8287 3.47729 18.8278 3.47729 18.8268 3.47729H0.77377C0.772812 3.47729 0.771893 3.47729 0.770936 3.47729C0.661511 3.47772 0.61415 3.61995 0.698229 3.6914L7.79213 9.71812C7.79298 9.71882 7.79382 9.71956 7.79466 9.72027L8.88765 10.6488C9.41647 11.0981 10.1842 11.0981 10.713 10.6488L18.9024 3.6914C18.9865 3.61991 18.9391 3.47769 18.8297 3.47729Z" fill="#808080"/>
<path d="M0.0116776 4.13599C0.00455619 4.17903 0 4.22286 0 4.26794V14.6775L6.90285 9.99044L0.0116776 4.13599Z" fill="#808080"/>
</g>
<defs>
<clipPath id="clip0">
<rect width="19.6031" height="20" fill="white"/>
</clipPath>
</defs>
</svg>
