<svg width="11" height="15" viewBox="0 0 11 15" fill="none" xmlns="http://www.w3.org/2000/svg">
<path d="M5.5003 0C2.50484 0 0.0678711 2.43697 0.0678711 5.4324C0.0678711 9.14983 4.92937 14.6072 5.13635 14.8377C5.33076 15.0543 5.6702 15.0539 5.86426 14.8377C6.07124 14.6072 10.9327 9.14983 10.9327 5.4324C10.9327 2.43697 8.49573 0 5.5003 0ZM5.5003 8.1656C3.99321 8.1656 2.76714 6.93949 2.76714 5.4324C2.76714 3.92531 3.99324 2.69924 5.5003 2.69924C7.00736 2.69924 8.23344 3.92534 8.23344 5.43243C8.23344 6.93952 7.00736 8.1656 5.5003 8.1656Z" fill="#C23A3A"/>
</svg>
