<svg width="22" height="22" viewBox="0 0 22 22" fill="none" xmlns="http://www.w3.org/2000/svg">
<g clip-path="url(#clip0)">
<path d="M11.0005 0C6.72923 0 3.25439 3.52945 3.25439 7.86754V14.1327C3.25439 18.4708 6.72923 22 11.0005 22C15.2716 22 18.7467 18.4815 18.7467 14.1567V7.86754C18.7467 3.52945 15.2716 0 11.0005 0ZM17.2897 14.1567C17.2897 17.6782 14.4686 20.5431 11.0005 20.5431C7.53275 20.5431 4.71138 17.6673 4.71138 14.1325V7.86754C4.71138 4.33271 7.53275 1.45694 11.0005 1.45694C14.4686 1.45694 17.2897 4.33271 17.2897 7.86754V14.1567Z" fill="white"/>
<path d="M11 6.02222C10.5976 6.02222 10.2715 6.34835 10.2715 6.75071V9.30039C10.2715 9.70275 10.5976 10.0289 11 10.0289C11.4023 10.0289 11.7285 9.70275 11.7285 9.30039V6.75071C11.7285 6.34835 11.4023 6.02222 11 6.02222Z" fill="white"/>
</g>
<defs>
<clipPath id="clip0">
<rect width="22" height="22" fill="white"/>
</clipPath>
</defs>
</svg>
