<svg width="197" height="92" viewBox="0 0 197 92" fill="none" xmlns="http://www.w3.org/2000/svg">
<path fill-rule="evenodd" clip-rule="evenodd" d="M161.207 8.88037C160.391 8.88037 159.574 8.88037 158.758 8.96199V21.1238C159.574 21.0422 160.391 20.9606 161.207 20.9606C163.656 20.9606 165.859 21.287 168.145 22.0217H168.226C169.451 22.4298 170.594 22.9195 171.736 23.4909L171.818 23.5725C171.899 23.5725 171.981 23.6541 172.063 23.6541C173.777 24.552 175.328 25.6947 176.797 27.0823C178.348 28.5515 179.654 30.1839 180.715 31.9796V32.0613C182.837 35.4894 183.898 39.5706 183.898 43.5701C183.898 46.7534 183.245 49.7734 182.021 52.5486L189.857 63.4044C193.774 57.7725 196.06 50.9161 196.06 43.5701C195.978 24.3887 180.388 8.88037 161.207 8.88037ZM168.145 65.2001L175.409 75.403C171.083 77.3619 166.268 78.423 161.207 78.423C142.026 78.423 126.436 62.8331 126.436 43.6517C126.436 33.204 131.006 23.8174 138.271 17.4508V43.6517V43.7333C139.005 54.5075 145.535 63.9758 156.31 65.6899C157.044 65.8531 157.86 66.0164 158.677 66.098C159.493 66.1796 160.309 66.2612 161.125 66.2612C163.574 66.2612 165.941 65.9347 168.145 65.2001Z" fill="white"/>
<path fill-rule="evenodd" clip-rule="evenodd" d="M167.574 23.8984C172.798 25.6125 176.471 28.8774 179.083 33.0402L172.227 42.4268L195.326 74.5046C192.061 78.5041 181.613 72.464 177.287 74.6678L163.166 54.9151L161.616 52.7113L159.33 49.528L159.085 49.2015V35.8154L167.574 23.8984ZM156.8 45.9366L154.27 42.4268L156.8 38.917V45.9366Z" fill="white"/>
<path fill-rule="evenodd" clip-rule="evenodd" d="M140.23 0.63623H156.8V63.8123C147.495 61.6901 140.965 54.0992 140.23 43.5698V0.63623Z" fill="white"/>
<path fill-rule="evenodd" clip-rule="evenodd" d="M15.4284 54.8338H6.12344V77.6066H0.736328V50.2629H15.4284V54.8338Z" fill="white"/>
<path fill-rule="evenodd" clip-rule="evenodd" d="M0.981356 77.3613H5.87873V54.6701H15.1837V50.5074H0.981356V77.3613ZM6.36846 77.851H0.573242V50.0992H15.6735V55.1599H6.36846V77.851Z" fill="white"/>
<path fill-rule="evenodd" clip-rule="evenodd" d="M40.1612 63.9757C40.1612 58.4253 36.3249 54.5074 30.9378 54.5074C25.5507 54.5074 21.7144 58.4253 21.7144 63.9757C21.7144 69.526 25.5507 73.3623 30.9378 73.3623C36.3249 73.3623 40.1612 69.526 40.1612 63.9757ZM45.7115 63.9757C45.7115 72.3012 39.6714 78.2597 30.9378 78.2597C22.2042 78.2597 16.1641 72.3012 16.1641 63.9757C16.1641 55.6501 22.2042 49.6917 30.9378 49.6917C39.6714 49.6917 45.7115 55.6501 45.7115 63.9757Z" fill="white"/>
<path fill-rule="evenodd" clip-rule="evenodd" d="M30.938 54.7521C25.6325 54.7521 21.9594 58.5884 21.9594 63.9755C21.9594 69.3626 25.6325 73.1989 30.938 73.1989C36.2434 73.1989 39.9165 69.4442 39.9165 63.9755C39.9165 58.5067 36.2434 54.7521 30.938 54.7521ZM30.938 73.607C28.2444 73.607 25.8773 72.6275 24.1633 70.9134C22.4492 69.1993 21.5513 66.669 21.5513 63.9755C21.5513 61.2003 22.4492 58.7516 24.1633 57.0375C25.8773 55.2418 28.2444 54.344 30.938 54.344C33.6315 54.344 35.9986 55.3235 37.7127 57.0375C39.4267 58.8332 40.3246 61.2819 40.3246 63.9755C40.3246 66.669 39.4267 69.1993 37.7127 70.9134C35.9986 72.6275 33.6315 73.607 30.938 73.607ZM30.938 49.8547C39.5084 49.8547 45.4668 55.6499 45.4668 63.8939C45.4668 72.1378 39.5084 77.933 30.938 77.933C22.3676 77.933 16.4091 72.1378 16.4091 63.8939C16.4091 55.6499 22.3676 49.8547 30.938 49.8547ZM30.938 78.4227C26.6936 78.4227 22.8573 76.9535 20.1637 74.3416C17.4702 71.7297 16.001 68.0566 16.001 63.8939C16.001 59.8127 17.4702 56.0581 20.1637 53.4461C22.8573 50.8342 26.6936 49.365 30.938 49.365C35.1823 49.365 39.0186 50.8342 41.7122 53.4461C44.4057 56.0581 45.8749 59.8127 45.8749 63.8939C45.8749 67.975 44.4057 71.7297 41.7122 74.3416C39.0186 77.0351 35.1823 78.4227 30.938 78.4227Z" fill="white"/>
<path fill-rule="evenodd" clip-rule="evenodd" d="M55.9945 62.9145H58.1983C59.2594 62.9145 60.5654 62.9145 61.7081 62.0166C62.6876 61.2004 63.1773 59.9761 63.1773 58.8333C63.1773 57.2825 62.4427 56.303 61.6265 55.7317C60.4838 54.9154 59.0962 54.8338 57.7902 54.8338H55.9129V62.9145H55.9945ZM58.6881 50.2629C61.7898 50.2629 63.9119 50.5894 65.9525 52.3851C68.1563 54.4257 68.8093 57.0376 68.8093 58.9966C68.8093 60.0577 68.6461 62.9961 66.5239 65.1183C64.973 66.6691 62.6876 67.567 59.5043 67.567H55.9945V77.6882H50.6074V50.2629H58.6881Z" fill="white"/>
<path fill-rule="evenodd" clip-rule="evenodd" d="M56.2396 62.6692H58.1985C59.178 62.6692 60.4839 62.6692 61.545 61.8529C62.4429 61.2 62.9326 60.0572 62.9326 58.8329C62.9326 57.6085 62.4429 56.6291 61.4634 55.8945C60.4023 55.1599 59.0147 55.0782 57.7904 55.0782H56.1579V62.6692H56.2396ZM58.1985 63.0773H55.7498V54.6701H57.872C59.2596 54.6701 60.6472 54.7517 61.7899 55.568C62.851 56.3842 63.4224 57.5269 63.4224 58.8329C63.4224 60.1389 62.851 61.4448 61.8715 62.1794C60.6472 63.0773 59.2596 63.0773 58.1985 63.0773ZM50.8525 77.3613V50.5074H58.6882C61.7899 50.5074 63.8305 50.8338 65.7894 52.5479C68.1565 54.6701 68.5646 57.5269 68.5646 58.9961C68.5646 60.3837 68.2381 63.0773 66.3608 64.9546C64.81 66.5054 62.4429 67.3217 59.5045 67.3217H55.8314V77.3613H50.8525ZM56.2396 77.851H50.4443V50.0992H58.6882C61.8715 50.0992 64.0754 50.4257 66.1159 52.2214C68.6462 54.5069 68.9727 57.4453 68.9727 58.9961C68.9727 60.4653 68.6462 63.2405 66.6057 65.2811C64.9732 66.9135 62.5245 67.7298 59.4229 67.7298H56.1579V77.851H56.2396Z" fill="white"/>
<path fill-rule="evenodd" clip-rule="evenodd" d="M95.419 63.9757C95.419 58.4253 91.5827 54.5074 86.1956 54.5074C80.8085 54.5074 76.9722 58.4253 76.9722 63.9757C76.9722 69.526 80.8085 73.3623 86.1956 73.3623C91.5827 73.3623 95.419 69.526 95.419 63.9757ZM100.969 63.9757C100.969 72.3012 94.9293 78.2597 86.1956 78.2597C77.462 78.2597 71.4219 72.3012 71.4219 63.9757C71.4219 55.6501 77.462 49.6917 86.1956 49.6917C94.9293 49.6917 100.969 55.6501 100.969 63.9757Z" fill="white"/>
<path fill-rule="evenodd" clip-rule="evenodd" d="M86.1958 54.7521C80.8903 54.7521 77.2173 58.5884 77.2173 63.9755C77.2173 69.3626 80.8903 73.1989 86.1958 73.1989C91.5013 73.1989 95.1743 69.4442 95.1743 63.9755C95.1743 58.5067 91.5013 54.7521 86.1958 54.7521ZM86.1958 73.607C83.5022 73.607 81.1352 72.6275 79.4211 70.9134C77.707 69.1993 76.8091 66.669 76.8091 63.9755C76.8091 61.2003 77.707 58.7516 79.4211 57.0375C81.1352 55.2418 83.5022 54.344 86.1958 54.344C88.8893 54.344 91.2564 55.3235 92.9705 57.0375C94.6845 58.8332 95.5824 61.2819 95.5824 63.9755C95.5824 66.669 94.6845 69.1993 92.9705 70.9134C91.2564 72.6275 88.8893 73.607 86.1958 73.607ZM86.1958 49.8547C94.7662 49.8547 100.725 55.6499 100.725 63.8939C100.725 72.1378 94.7662 77.933 86.1958 77.933C77.6254 77.933 71.6669 72.1378 71.6669 63.8939C71.6669 55.6499 77.6254 49.8547 86.1958 49.8547ZM86.1958 78.4227C81.9514 78.4227 78.1151 76.9535 75.4216 74.3416C72.728 71.7297 71.2588 68.0566 71.2588 63.8939C71.2588 59.8127 72.728 56.0581 75.4216 53.4461C78.1151 50.8342 81.9514 49.365 86.1958 49.365C90.4402 49.365 94.2764 50.8342 96.97 53.4461C99.6635 56.0581 101.133 59.8127 101.133 63.8939C101.133 67.975 99.6635 71.7297 96.97 74.3416C94.2764 77.0351 90.4402 78.4227 86.1958 78.4227Z" fill="white"/>
<path fill-rule="evenodd" clip-rule="evenodd" d="M109.621 72.7909L115.089 59.3231L120.15 72.7909H109.621ZM126.19 72.8725L117.13 50.5895H112.886L104.07 72.8725H102.111V77.6066H128.394V72.8725H126.19Z" fill="white"/>
<path fill-rule="evenodd" clip-rule="evenodd" d="M109.949 72.5461H119.825L115.091 59.9761L109.949 72.5461ZM120.478 72.9542H109.296L115.091 58.6702L120.478 72.9542ZM102.195 77.3618V73.1174H104.072L112.887 50.8344H116.887L125.947 73.1174H127.988V77.3618H102.195ZM128.477 77.8515H101.705V72.7093H103.746L112.643 50.4263H117.213L126.274 72.7093H128.477V77.8515Z" fill="white"/>
<path fill-rule="evenodd" clip-rule="evenodd" d="M0 90.168H1.39076V87.627H2.29066C3.59961 87.627 4.41771 86.5755 4.41771 85.4365C4.41771 84.2974 3.59961 83.2459 2.29066 83.2459H0V90.168ZM1.39076 86.3127V84.4726H2.20885C2.69971 84.4726 2.94514 84.8231 2.94514 85.4365C2.94514 85.9622 2.6179 86.4003 2.20885 86.4003H1.39076V86.3127ZM5.31761 90.168H9.24446V88.8537H6.79018V87.2765H8.83542L8.91722 86.0498H6.79018V84.4726H9.24446V83.1583H5.31761V90.168ZM10.4716 90.168H11.8624V87.4518L12.5168 87.1889L13.8258 90.168H15.462L13.744 86.6632C14.0712 86.4879 14.3166 86.2251 14.4803 85.5241L15.0529 83.1583H13.6622L13.1713 84.9984C13.0895 85.3488 12.9259 85.5241 12.5168 85.6993L11.7806 85.9622V83.1583H10.3898V90.168H10.4716ZM15.7892 90.2557C17.589 90.168 18.5707 89.6423 18.5707 84.4726H20.0433V90.168H21.4341V83.2459H17.18C17.18 88.2404 16.7709 88.8537 15.6256 89.029L15.7892 90.2557ZM22.334 90.168H23.7247L24.1338 88.5032H25.9336L26.3426 90.168H27.8152L25.8518 83.2459H24.2156L22.334 90.168ZM24.461 87.1889L24.7882 85.8746C24.8701 85.5241 24.9519 85.086 25.0337 84.7355C25.1155 85.1736 25.1973 85.6117 25.2791 85.8746L25.6063 87.1889H24.461ZM28.3879 90.168H29.7786L30.0241 86.5755C30.0241 86.2251 30.1059 85.6993 30.1059 85.2612C30.1877 85.787 30.3513 86.2251 30.4331 86.5755L31.2512 88.9413H32.7238L33.5419 86.5755C33.6237 86.2251 33.7873 85.787 33.8691 85.2612C33.8691 85.787 33.8691 86.2251 33.9509 86.5755L34.1963 90.168H35.5871L34.9326 83.2459H33.2964L32.1511 86.5755C32.0693 86.8384 31.9875 87.1013 31.9057 87.4518C31.8239 87.1013 31.742 86.7508 31.6602 86.5755L30.5149 83.2459H28.8787L28.3879 90.168ZM36.6506 90.168H38.0414V87.2765H40.0866V90.168H41.4774V83.2459H40.0866V86.0498H38.1232V83.2459H36.7324V90.168H36.6506ZM42.6227 87.3641C42.6227 89.2918 43.768 90.2557 45.1588 90.2557C46.5495 90.2557 47.6949 89.2918 47.6949 87.3641V85.9622C47.6949 84.0345 46.5495 83.0707 45.1588 83.0707C43.768 83.0707 42.6227 84.0345 42.6227 85.9622V87.3641ZM45.1588 88.9413C44.5043 88.9413 44.0135 88.5032 44.0135 87.2765V86.0498C44.0135 84.8231 44.5043 84.385 45.1588 84.385C45.8133 84.385 46.3041 84.8231 46.3041 86.0498V87.2765C46.3859 88.5908 45.8951 88.9413 45.1588 88.9413ZM52.358 87.9775V86.7508H48.922V87.9775H52.358ZM53.7488 90.168H55.1395V84.4726H57.103V90.168H58.4937V83.2459H53.667V90.168H53.7488ZM59.8845 90.168H61.2752V87.627H62.1751C63.4841 87.627 64.3022 86.5755 64.3022 85.4365C64.3022 84.2974 63.4841 83.2459 62.1751 83.2459H59.8845V90.168ZM61.2752 86.3127V84.4726H62.0933C62.5842 84.4726 62.8296 84.8231 62.8296 85.4365C62.8296 85.9622 62.5024 86.4003 62.0933 86.4003H61.2752V86.3127ZM65.0385 87.3641C65.0385 89.2918 66.1838 90.2557 67.5746 90.2557C68.9653 90.2557 70.1107 89.2918 70.1107 87.3641V85.9622C70.1107 84.0345 68.9653 83.0707 67.5746 83.0707C66.1838 83.0707 65.0385 84.0345 65.0385 85.9622V87.3641ZM67.6564 88.9413C67.0019 88.9413 66.511 88.5032 66.511 87.2765V86.0498C66.511 84.8231 67.0019 84.385 67.6564 84.385C68.3108 84.385 68.8017 84.8231 68.8017 86.0498V87.2765C68.8017 88.5908 68.3108 88.9413 67.6564 88.9413ZM76.2464 83.1583H75.101L72.7286 87.1889C72.7286 86.8384 72.7286 86.4003 72.7286 86.1374V83.1583H71.3378V90.0804H72.4831L74.8556 86.0498C74.8556 86.4879 74.8556 86.8384 74.8556 87.1013V90.0804H76.2464V83.1583ZM81.7276 87.9775C81.7276 87.1889 81.4004 86.6632 80.6641 86.4003C81.1549 86.2251 81.4822 85.5241 81.4822 84.9107C81.4822 83.7717 80.7459 83.0707 79.5187 83.0707C78.7006 83.0707 78.0462 83.2459 77.4735 83.5088L77.8007 84.6479C78.2916 84.385 78.7825 84.2974 79.2733 84.2974C79.9278 84.2974 80.0914 84.6479 80.0914 84.9984C80.0914 85.5241 79.846 85.8746 79.1915 85.8746H78.4552L78.537 87.1013H79.4369C80.1732 87.1013 80.3368 87.4518 80.3368 87.9775C80.3368 88.5908 79.846 88.9413 79.1915 88.9413C78.7006 88.9413 78.128 88.7661 77.6371 88.5908L77.3917 89.8176C77.8825 90.0804 78.8643 90.168 79.4369 90.168C80.6641 90.2557 81.7276 89.3794 81.7276 87.9775ZM85 90.168C86.3907 90.168 87.4543 89.2042 87.4543 88.0651C87.4543 87.2765 87.0452 86.7508 86.3907 86.5755C86.8816 86.3127 87.2088 85.8746 87.2088 85.2612C87.2088 84.1221 86.3907 83.3335 85 83.3335H82.8729V90.2557H85V90.168ZM84.2637 85.9622V84.4726H84.9182C85.4908 84.4726 85.7363 84.8231 85.7363 85.1736C85.7363 85.6117 85.409 85.9622 84.8363 85.9622H84.2637ZM84.2637 88.8537V87.1889H85.0818C85.7363 87.1889 85.9817 87.5394 85.9817 87.9775C85.9817 88.4156 85.5726 88.7661 85 88.7661H84.2637V88.8537ZM88.2723 87.3641C88.2723 89.2918 89.4177 90.2557 90.8084 90.2557C92.1992 90.2557 93.3445 89.2918 93.3445 87.3641V85.9622C93.3445 84.0345 92.1992 83.0707 90.8084 83.0707C89.4177 83.0707 88.2723 84.0345 88.2723 85.9622V87.3641ZM90.8084 88.9413C90.154 88.9413 89.6631 88.5032 89.6631 87.2765V86.0498C89.6631 84.8231 90.154 84.385 90.8084 84.385C91.4629 84.385 91.9538 84.8231 91.9538 86.0498V87.2765C91.9538 88.5908 91.4629 88.9413 90.8084 88.9413ZM96.0442 88.8537C96.3715 88.2404 96.7805 86.2251 96.8623 84.385H98.2531V88.8537H96.0442ZM93.999 88.8537V91.4824L95.308 91.3071V90.168H99.153V91.4824L100.462 91.3071V88.9413H99.8075V83.2459H95.717C95.717 85.3488 95.308 88.0651 94.6535 88.9413H93.999V88.8537ZM105.289 88.6785C104.798 88.8537 104.225 88.9413 103.734 88.9413C102.998 88.9413 102.507 88.5032 102.507 87.2765V86.0498C102.507 84.8231 102.998 84.385 103.734 84.385C104.307 84.385 104.798 84.4726 105.289 84.6479L105.534 83.4212C104.88 83.2459 104.307 83.0707 103.653 83.0707C102.098 83.0707 101.035 84.0345 101.035 85.9622V87.4518C101.035 89.3794 102.18 90.3433 103.653 90.3433C104.307 90.3433 104.88 90.2557 105.534 89.9928L105.289 88.6785ZM107.825 90.168H109.216V84.4726H110.77V83.1583H106.189V84.4726H107.743V90.168H107.825ZM113.879 90.168C115.269 90.168 116.333 89.2042 116.333 88.0651C116.333 87.2765 115.924 86.7508 115.269 86.5755C115.76 86.3127 116.088 85.8746 116.088 85.2612C116.088 84.1221 115.269 83.3335 113.879 83.3335H111.752V90.2557H113.879V90.168ZM113.142 85.9622V84.4726H113.797C114.37 84.4726 114.615 84.8231 114.615 85.1736C114.615 85.6117 114.288 85.9622 113.715 85.9622H113.142ZM113.142 88.8537V87.1889H113.96C114.615 87.1889 114.86 87.5394 114.86 87.9775C114.86 88.4156 114.451 88.7661 113.879 88.7661H113.142V88.8537ZM117.315 90.168H121.242V88.8537H118.705V87.2765H120.751L120.832 86.0498H118.787V84.4726H121.242V83.1583H117.396V90.168H117.315ZM122.387 90.168H123.778V87.2765H125.741V90.168H127.132V83.2459H125.741V86.0498H123.778V83.2459H122.387V90.168ZM128.604 90.168H129.995V87.2765H131.959V90.168H133.349V83.2459H131.959V86.0498H129.995V83.2459H128.604V90.168ZM134.249 90.168H135.64L136.049 88.5032H137.849L138.258 90.168H139.649L137.685 83.2459H136.049L134.249 90.168ZM136.458 87.1889L136.785 85.8746C136.867 85.5241 136.949 85.086 137.031 84.7355C137.113 85.1736 137.194 85.6117 137.276 85.8746L137.603 87.1889H136.458ZM144.803 83.1583H142.43C141.121 83.1583 140.303 84.2098 140.303 85.3488C140.303 86.2251 140.712 87.0137 141.448 87.2765L140.221 89.9928H141.776L142.839 87.4518H143.412V89.9928H144.803V83.1583ZM142.512 86.3127C142.021 86.3127 141.776 85.9622 141.776 85.3488C141.776 84.8231 142.103 84.385 142.512 84.385H143.412V86.2251H142.512V86.3127ZM148.239 90.168H149.629V87.4518L150.284 87.1889L151.593 90.168H153.229L151.511 86.6632C151.838 86.4879 152.084 86.2251 152.247 85.5241L152.82 83.1583H151.429L150.938 84.9984C150.857 85.3488 150.693 85.5241 150.284 85.6993L149.548 85.9622V83.1583H148.157V90.168H148.239ZM153.965 87.3641C153.965 89.2918 155.111 90.2557 156.501 90.2557C157.892 90.2557 159.037 89.2918 159.037 87.3641V85.9622C159.037 84.0345 157.892 83.0707 156.501 83.0707C155.111 83.0707 153.965 84.0345 153.965 85.9622V87.3641ZM156.583 88.9413C155.929 88.9413 155.438 88.5032 155.438 87.2765V86.0498C155.438 84.8231 155.929 84.385 156.583 84.385C157.238 84.385 157.729 84.8231 157.729 86.0498V87.2765C157.729 88.5908 157.238 88.9413 156.583 88.9413ZM159.937 90.168H161.328L161.574 86.5755C161.574 86.2251 161.655 85.6993 161.655 85.2612C161.737 85.787 161.901 86.2251 161.983 86.5755L162.801 88.9413H164.273L165.091 86.5755C165.173 86.2251 165.337 85.787 165.419 85.2612C165.419 85.787 165.419 86.2251 165.5 86.5755L165.746 90.168H167.137L166.482 83.2459H164.846L163.701 86.5755C163.619 86.8384 163.537 87.1013 163.455 87.4518C163.373 87.1013 163.292 86.7508 163.21 86.5755L162.064 83.2459H160.428L159.937 90.168ZM168.2 90.168H169.591V84.4726H171.554V90.168H172.945V83.2459H168.118V90.168H168.2ZM173.927 90.168H175.318L175.727 88.5032H177.526L177.935 90.168H179.326L177.363 83.2459H175.727L173.927 90.168ZM176.054 87.1889L176.381 85.8746C176.463 85.5241 176.545 85.086 176.626 84.7355C176.708 85.1736 176.79 85.6117 176.872 85.8746L177.199 87.1889H176.054ZM180.308 90.168H181.699V87.2765H183.662V90.168H185.053V83.2459H183.662V86.0498H181.699V83.2459H180.308V90.168ZM191.352 83.1583H190.207L187.834 87.1889C187.834 86.8384 187.834 86.4003 187.834 86.1374V83.1583H186.444V90.0804H187.589L189.961 86.0498C189.961 86.4879 189.961 86.8384 189.961 87.1013V90.0804H191.352V83.1583ZM196.833 83.1583H194.461C193.152 83.1583 192.334 84.2098 192.334 85.3488C192.334 86.2251 192.743 87.0137 193.479 87.2765L192.252 89.9928H193.806L194.87 87.4518H195.443V89.9928H196.833V83.1583ZM194.625 86.3127C194.134 86.3127 193.888 85.9622 193.888 85.3488C193.888 84.8231 194.216 84.385 194.625 84.385H195.524V86.2251H194.625V86.3127Z" fill="white"/>
</svg>
