<svg width="397" height="35" viewBox="0 0 397 35" fill="none" xmlns="http://www.w3.org/2000/svg">
<path fill-rule="evenodd" clip-rule="evenodd" d="M198.482 4C198.118 4 197.755 4 197.392 4.03638V9.45775C197.755 9.42136 198.118 9.38498 198.482 9.38498C199.572 9.38498 200.553 9.53052 201.571 9.85798H201.607C202.152 10.0399 202.661 10.2582 203.17 10.5129L203.206 10.5493C203.243 10.5493 203.279 10.5857 203.315 10.5857C204.079 10.9859 204.769 11.4953 205.423 12.1138C206.114 12.7688 206.695 13.4965 207.168 14.2969V14.3333C208.113 15.8615 208.585 17.6808 208.585 19.4636C208.585 20.8826 208.294 22.2289 207.749 23.466L211.238 28.3052C212.982 25.7946 214 22.7383 214 19.4636C213.964 10.9131 207.022 4 198.482 4ZM201.571 29.1056L204.805 33.6538C202.879 34.527 200.735 35 198.482 35C189.941 35 183 28.0505 183 19.5C183 14.8427 185.035 10.6585 188.27 7.82042V19.5V19.5364C188.597 24.3392 191.504 28.5599 196.301 29.3239C196.628 29.3967 196.992 29.4695 197.355 29.5059C197.719 29.5423 198.082 29.5786 198.445 29.5786C199.536 29.5786 200.59 29.4331 201.571 29.1056Z" fill="#151E3C"/>
<path fill-rule="evenodd" clip-rule="evenodd" d="M201.157 11C203.575 11.758 205.274 13.2018 206.483 15.0426L203.31 19.1935L214 33.3787C212.489 35.1473 207.654 32.4763 205.652 33.4509L199.117 24.716L198.4 23.7414L197.342 22.3337L197.229 22.1894V16.2698L201.157 11ZM196.171 20.7456L195 19.1935L196.171 17.6414V20.7456Z" fill="#B5150E"/>
<path fill-rule="evenodd" clip-rule="evenodd" d="M189 0H197V28C192.507 27.0594 189.355 23.6951 189 19.0284V0Z" fill="#B5150E"/>
<rect x="233" y="21" width="164" height="1" fill="#EDEDED"/>
<rect y="21" width="164" height="1" fill="#EDEDED"/>
</svg>
