<svg width="17" height="13" viewBox="0 0 17 13" fill="none" xmlns="http://www.w3.org/2000/svg">
<path d="M5.34636 12.9999C11.7618 12.9999 15.2701 7.99887 15.2701 3.66234C15.2701 3.52031 15.267 3.37886 15.2602 3.23819C15.9411 2.7749 16.533 2.19678 17 1.53873C16.3751 1.80021 15.7024 1.976 14.9971 2.05553C15.7171 1.64908 16.27 1.00639 16.5307 0.24025C15.8568 0.616178 15.1105 0.889296 14.316 1.03681C13.6796 0.398916 12.7733 0 11.77 0C9.84397 0 8.28194 1.46967 8.28194 3.28133C8.28194 3.53899 8.31261 3.78941 8.37239 4.02966C5.47361 3.89242 2.90304 2.5866 1.18299 0.60082C0.883575 1.08572 0.710789 1.64917 0.710789 2.25039C0.710789 3.38883 1.32656 4.39415 2.26284 4.98205C1.69063 4.96552 1.15315 4.81771 0.683239 4.57169C0.68272 4.58548 0.68272 4.59889 0.68272 4.61356C0.68272 6.20296 1.88494 7.53001 3.48107 7.83072C3.1879 7.90575 2.87944 7.94615 2.56132 7.94615C2.33697 7.94615 2.11823 7.92541 1.90573 7.88696C2.34975 9.19093 3.63743 10.1398 5.16401 10.1664C3.97021 11.0468 2.4664 11.5712 0.832009 11.5712C0.550896 11.5712 0.273005 11.5561 0 11.5257C1.54363 12.4567 3.37659 13 5.34646 13" fill="white"/>
</svg>
