<svg width="145" height="143" viewBox="0 0 145 143" fill="none" xmlns="http://www.w3.org/2000/svg">
<g filter="url(#filter0_d)">
<ellipse cx="72.0502" cy="67.2241" rx="52.0502" ry="51.2241" fill="#B61716"/>
</g>
<path d="M78.6797 48.1133C78.6797 47.4985 78.1812 47 77.5664 47H66.4336C65.8188 47 65.3203 47.4985 65.3203 48.1133V49.375H78.6797V48.1133Z" fill="white"/>
<path d="M55.0991 62.1508C54.7638 62.352 54.5586 62.7144 54.5586 63.1054V64.9609H57.5273C58.1422 64.9609 58.6406 65.4594 58.6406 66.0742C58.6406 66.689 58.1422 67.1875 57.5273 67.1875H54.5586V69.414H57.5273C58.1422 69.414 58.6406 69.9125 58.6406 70.5273C58.6406 71.1421 58.1422 71.6406 57.5273 71.6406H54.5586V73.8672H57.5273C58.1422 73.8672 58.6406 74.3656 58.6406 74.9804C58.6406 75.5953 58.1422 76.0937 57.5273 76.0937H54.5586V78.3203H57.5273C58.1422 78.3203 58.6406 78.8187 58.6406 79.4336C58.6406 80.0484 58.1422 80.5468 57.5273 80.5468H54.5586V82.7734H54.1133C53.4985 82.7734 53 83.2719 53 83.8867C53 84.5015 53.4985 85 54.1133 85H60.8672V58.6899L55.0991 62.1508Z" fill="white"/>
<path d="M79.793 51.6016H64.207C63.5922 51.6016 63.0938 52.1 63.0938 52.7148V85H80.9062V52.7148C80.9062 52.1 80.4078 51.6016 79.793 51.6016ZM68.6602 79.4336C68.6602 80.0484 68.1617 80.5469 67.5469 80.5469C66.932 80.5469 66.4336 80.0484 66.4336 79.4336V57.168C66.4336 56.5531 66.932 56.0547 67.5469 56.0547C68.1617 56.0547 68.6602 56.5531 68.6602 57.168V79.4336ZM73.1133 79.4336C73.1133 80.0484 72.6148 80.5469 72 80.5469C71.3852 80.5469 70.8867 80.0484 70.8867 79.4336V57.168C70.8867 56.5531 71.3852 56.0547 72 56.0547C72.6148 56.0547 73.1133 56.5531 73.1133 57.168V79.4336ZM77.5664 79.4336C77.5664 80.0484 77.068 80.5469 76.4531 80.5469C75.8383 80.5469 75.3398 80.0484 75.3398 79.4336V57.168C75.3398 56.5531 75.8383 56.0547 76.4531 56.0547C77.068 56.0547 77.5664 56.5531 77.5664 57.168V79.4336Z" fill="white"/>
<path d="M89.8867 82.7734H89.4414V80.5468H86.4727C85.8578 80.5468 85.3594 80.0484 85.3594 79.4336C85.3594 78.8187 85.8578 78.3203 86.4727 78.3203H89.4414V76.0937H86.4727C85.8578 76.0937 85.3594 75.5953 85.3594 74.9804C85.3594 74.3656 85.8578 73.8672 86.4727 73.8672H89.4414V71.6406H86.4727C85.8578 71.6406 85.3594 71.1421 85.3594 70.5273C85.3594 69.9125 85.8578 69.414 86.4727 69.414H89.4414V67.1875H86.4727C85.8578 67.1875 85.3594 66.689 85.3594 66.0742C85.3594 65.4594 85.8578 64.9609 86.4727 64.9609H89.4414V63.1054C89.4414 62.7144 89.2362 62.352 88.9009 62.1508L83.1328 58.6899V85H89.8867C90.5015 85 91 84.5015 91 83.8867C91 83.2719 90.5015 82.7734 89.8867 82.7734Z" fill="white"/>
<defs>
<filter id="filter0_d" x="0" y="0" width="144.1" height="142.448" filterUnits="userSpaceOnUse" color-interpolation-filters="sRGB">
<feFlood flood-opacity="0" result="BackgroundImageFix"/>
<feColorMatrix in="SourceAlpha" type="matrix" values="0 0 0 0 0 0 0 0 0 0 0 0 0 0 0 0 0 0 127 0"/>
<feOffset dy="4"/>
<feGaussianBlur stdDeviation="10"/>
<feColorMatrix type="matrix" values="0 0 0 0 0 0 0 0 0 0 0 0 0 0 0 0 0 0 0.1 0"/>
<feBlend mode="normal" in2="BackgroundImageFix" result="effect1_dropShadow"/>
<feBlend mode="normal" in="SourceGraphic" in2="effect1_dropShadow" result="shape"/>
</filter>
</defs>
</svg>
