<svg width="145" height="143" viewBox="0 0 145 143" fill="none" xmlns="http://www.w3.org/2000/svg">
<g filter="url(#filter0_d)">
<ellipse cx="72.0502" cy="67.2241" rx="52.0502" ry="51.2241" fill="#B6191C"/>
</g>
<g clip-path="url(#clip0)">
<path d="M77.6298 74.7209C75.4017 77.5684 74.9924 81.4372 76.5762 84.6873C78.1597 87.9379 81.4585 90.0001 85.0739 90.0001C89.4946 89.9997 93.3249 86.9354 94.2952 82.6223C95.2658 78.3097 93.1171 73.9 89.1226 72.0062C85.1281 70.1125 80.3547 71.2399 77.6298 74.7209ZM83.5742 75.8573C83.5742 75.5242 83.8444 75.254 84.1775 75.254C84.5106 75.254 84.7809 75.5242 84.7809 75.8573V81.1022L87.3016 82.7174C87.4893 82.8309 87.6001 83.0371 87.5918 83.2563C87.5836 83.4751 87.4571 83.6727 87.2615 83.7717C87.0663 83.8707 86.8321 83.8558 86.6507 83.7332L83.8519 81.9396C83.6787 81.8289 83.5742 81.6372 83.5742 81.4317V75.8573Z" fill="white"/>
<path d="M57.7486 81.1948C58.4003 81.8441 59.2837 82.2078 60.2041 82.2051H60.2213L74.531 82.1261C74.4533 81.6037 74.414 81.0757 74.414 80.5474C74.4132 74.8874 78.8366 70.2141 84.488 69.9038L84.413 55.3136L78.7463 55.3407H78.7231C76.1384 55.3403 74.0396 53.2514 74.0271 50.6663L74 45L60.0426 45.0672C58.1151 45.0762 56.56 46.6463 56.5694 48.5742L56.7139 78.7318C56.7163 79.6581 57.0887 80.545 57.7486 81.1948ZM71.9868 67.2743H69.9407C69.6076 67.2743 69.3373 67.0045 69.3373 66.671C69.3373 66.3379 69.6076 66.0676 69.9407 66.0676H71.9868C72.3203 66.0676 72.5902 66.3379 72.5902 66.671C72.5902 67.0045 72.3203 67.2743 71.9868 67.2743ZM62.0526 60.9509H79.0409C79.3744 60.9509 79.6443 61.2211 79.6443 61.5542C79.6443 61.8873 79.3744 62.1576 79.0409 62.1576H62.0526C61.7191 62.1576 61.4493 61.8873 61.4493 61.5542C61.4493 61.2211 61.7191 60.9509 62.0526 60.9509ZM62.0526 66.0676H67.3477C67.6812 66.0676 67.9511 66.3379 67.9511 66.671C67.9511 67.0045 67.6812 67.2743 67.3477 67.2743H62.0526C61.7191 67.2743 61.4493 67.0045 61.4493 66.671C61.4493 66.3379 61.7191 66.0676 62.0526 66.0676Z" fill="white"/>
<path d="M76.268 53.1236C76.9201 53.7729 77.8035 54.1367 78.7238 54.1343H78.7407L83.5735 54.1107L75.2109 45.8452L75.2341 50.6607C75.2357 51.5869 75.6081 52.4735 76.268 53.1236Z" fill="white"/>
</g>
<defs>
<filter id="filter0_d" x="0" y="0" width="144.1" height="142.448" filterUnits="userSpaceOnUse" color-interpolation-filters="sRGB">
<feFlood flood-opacity="0" result="BackgroundImageFix"/>
<feColorMatrix in="SourceAlpha" type="matrix" values="0 0 0 0 0 0 0 0 0 0 0 0 0 0 0 0 0 0 127 0"/>
<feOffset dy="4"/>
<feGaussianBlur stdDeviation="10"/>
<feColorMatrix type="matrix" values="0 0 0 0 0 0 0 0 0 0 0 0 0 0 0 0 0 0 0.1 0"/>
<feBlend mode="normal" in2="BackgroundImageFix" result="effect1_dropShadow"/>
<feBlend mode="normal" in="SourceGraphic" in2="effect1_dropShadow" result="shape"/>
</filter>
<clipPath id="clip0">
<rect width="45" height="45" fill="white" transform="translate(53 45)"/>
</clipPath>
</defs>
</svg>
