<svg width="145" height="143" viewBox="0 0 145 143" fill="none" xmlns="http://www.w3.org/2000/svg">
<g filter="url(#filter0_d)">
<ellipse cx="72.0502" cy="67.2241" rx="52.0502" ry="51.2241" fill="#B61716"/>
</g>
<path d="M91.0748 81.4139V87H53V81.4127C53 78.7748 55.2742 75.5274 58.0523 74.2078L64.2343 71.2708L68.5256 80.2135L70.7228 74.2563C71.1561 74.3382 71.5856 74.4474 72.0374 74.4474C72.4893 74.4474 72.9175 74.3382 73.352 74.2563L75.4375 79.9206L79.6444 71.1715L86.0262 74.2066C88.8007 75.5262 91.0748 78.7735 91.0748 81.4139ZM58.6159 61.8353V57.8009C58.6159 57.1169 58.9722 56.5173 59.5097 56.1722C60.2309 49.8934 65.5712 45 72.0399 45C78.5086 45 83.8501 49.8934 84.5726 56.1722C85.1089 56.5173 85.4652 57.1169 85.4652 57.8009V61.8353C85.4652 62.9065 84.5974 63.7755 83.5249 63.7755C82.4524 63.7755 81.5847 62.9065 81.5847 61.8353V60.9874C80.5345 66.2694 76.6677 71.1727 72.0411 71.1727C67.4146 71.1727 63.5478 66.2694 62.4976 60.9874V61.8353C62.4976 62.7042 61.9204 63.4316 61.1321 63.6787C61.9042 66.3066 63.6173 68.5771 65.9833 70.0667C66.4203 69.9227 66.9714 69.95 67.5065 70.2281C68.3655 70.6749 68.8037 71.5439 68.4785 72.1646C68.1545 72.7852 67.1961 72.9243 66.3322 72.4761C65.7015 72.1472 65.3018 71.5948 65.2596 71.0784C62.5497 69.3454 60.6281 66.6927 59.8349 63.6327C59.1224 63.3472 58.6159 62.6521 58.6159 61.8353ZM60.8317 55.7191C60.8901 55.7228 60.9459 55.7241 61.0018 55.7452C61.142 55.7973 61.2438 55.8979 61.3146 56.0158C61.7354 56.1945 62.0706 56.521 62.2766 56.9257C62.8489 51.5618 66.995 48.7241 72.0374 48.7241C77.0798 48.7241 81.2259 51.5618 81.7982 56.9257C82.0825 56.3683 82.6225 55.9699 83.2692 55.8867C82.43 50.4334 77.7203 46.2401 72.0374 46.2401C66.4128 46.2414 61.7404 50.349 60.8317 55.7191Z" fill="white"/>
<defs>
<filter id="filter0_d" x="0" y="0" width="144.1" height="142.448" filterUnits="userSpaceOnUse" color-interpolation-filters="sRGB">
<feFlood flood-opacity="0" result="BackgroundImageFix"/>
<feColorMatrix in="SourceAlpha" type="matrix" values="0 0 0 0 0 0 0 0 0 0 0 0 0 0 0 0 0 0 127 0"/>
<feOffset dy="4"/>
<feGaussianBlur stdDeviation="10"/>
<feColorMatrix type="matrix" values="0 0 0 0 0 0 0 0 0 0 0 0 0 0 0 0 0 0 0.1 0"/>
<feBlend mode="normal" in2="BackgroundImageFix" result="effect1_dropShadow"/>
<feBlend mode="normal" in="SourceGraphic" in2="effect1_dropShadow" result="shape"/>
</filter>
</defs>
</svg>
