<svg width="145" height="143" viewBox="0 0 145 143" fill="none" xmlns="http://www.w3.org/2000/svg">
<g filter="url(#filter0_d)">
<ellipse cx="72.0502" cy="67.2241" rx="52.0502" ry="51.2241" fill="#B6191C"/>
</g>
<g clip-path="url(#clip0)">
<path d="M58.4668 82.5835H62.5668V85.3168C62.5668 85.6942 62.2609 86.0001 61.8835 86.0001H59.1501C58.7727 86.0001 58.4668 85.6942 58.4668 85.3168V82.5835Z" fill="white"/>
<path d="M84.4336 82.5835H88.5336V85.3168C88.5336 85.6942 88.2277 86.0001 87.8503 86.0001H85.1169C84.7395 86.0001 84.4336 85.6942 84.4336 85.3168V82.5835Z" fill="white"/>
<path d="M74.8669 53.2002H72.1335C71.7561 53.2002 71.4502 53.5061 71.4502 53.8835V55.2502C71.4502 55.6276 71.7561 55.9335 72.1335 55.9335H74.8669C75.2443 55.9335 75.5502 55.6276 75.5502 55.2502V53.8835C75.5502 53.5061 75.2443 53.2002 74.8669 53.2002Z" fill="white"/>
<path d="M79.6501 45H67.3501C66.5953 45 65.9834 45.6119 65.9834 46.3667V50.4667C65.9834 51.2215 66.5953 51.8333 67.3501 51.8333H79.6501C80.4049 51.8333 81.0167 51.2215 81.0167 50.4667V46.3667C81.0167 45.6119 80.4049 45 79.6501 45ZM77.4019 48.9018L76.7186 49.5852C76.5231 49.7823 76.2277 49.8415 75.9714 49.7351C75.715 49.6286 75.5484 49.3776 75.5501 49.1H70.0834C69.706 49.1 69.4001 48.7941 69.4001 48.4167C69.4001 48.0393 69.706 47.7333 70.0834 47.7333H75.5501C75.549 47.5517 75.6203 47.3771 75.7482 47.2482C75.8765 47.1188 76.0512 47.046 76.2334 47.046C76.4156 47.046 76.5903 47.1188 76.7186 47.2482L77.4019 47.9315C77.5313 48.0598 77.604 48.2345 77.604 48.4167C77.604 48.5989 77.5313 48.7735 77.4019 48.9018Z" fill="white"/>
<path d="M64.8965 71.5954L66.8782 70.7412L64.7052 68.2334L62.4229 70.7617L64.343 71.5886C64.5196 71.6626 64.7181 71.665 64.8965 71.5954Z" fill="white"/>
<path d="M81.8509 66.7027C81.5875 66.815 81.3035 66.8709 81.0173 66.8667C80.7425 66.8662 80.4706 66.8104 80.2178 66.7027L77.9628 65.7392L76.6986 67.2221L83.5319 75.3059C83.7772 75.5927 83.7436 76.0241 83.4568 76.2694C83.1699 76.5147 82.7386 76.4811 82.4933 76.1943L75.9674 68.4384L73.6578 69.4361C73.3916 69.547 73.1056 69.6028 72.8173 69.6001C72.5425 69.5996 72.2706 69.5438 72.0178 69.4361L69.7696 68.4726L68.2799 70.2834L72.6464 75.3127C72.8759 75.5976 72.8403 76.0127 72.5657 76.2544C72.2911 76.496 71.8748 76.4786 71.6214 76.2148L67.8221 71.8414L65.4236 72.8664C65.1677 72.9703 64.8934 73.0215 64.6173 73.0167C64.3425 73.0162 64.0706 72.9604 63.8178 72.8527L61.4603 71.8414L57.1006 76.6931V77.1167C57.1006 77.4941 57.4065 77.8001 57.7839 77.8001H89.2173C89.5947 77.8001 89.9006 77.4941 89.9006 77.1167V72.4906L84.1674 65.7119L81.8509 66.7027Z" fill="white"/>
<path d="M73.1251 68.1789L75.0452 67.3521L72.8996 64.8169L70.7266 67.3862L72.5784 68.1789C72.7527 68.255 72.9508 68.255 73.1251 68.1789Z" fill="white"/>
<path d="M89.2173 58.6665H57.7839C57.4065 58.6665 57.1006 58.9724 57.1006 59.3498V74.6497L63.6743 67.3312C63.9413 67.0504 64.3118 66.8914 64.6993 66.8914C65.0867 66.8914 65.4572 67.0504 65.7243 67.3312L67.3506 69.224L71.8606 63.9282C72.1266 63.6456 72.4975 63.4853 72.8856 63.4853C73.2737 63.4853 73.6446 63.6456 73.9106 63.9282L75.8308 66.1832L80.0606 61.1948C80.3266 60.9122 80.6975 60.752 81.0856 60.752C81.4737 60.752 81.8446 60.9122 82.1106 61.1948L89.9006 70.372V59.3498C89.9006 58.9724 89.5947 58.6665 89.2173 58.6665Z" fill="white"/>
<path d="M81.3243 65.4455L83.2444 64.6187L81.0988 62.0835L78.9121 64.646L80.7708 65.4455C80.947 65.5236 81.148 65.5236 81.3243 65.4455Z" fill="white"/>
<path d="M90.5836 55.25H56.4169C54.9073 55.25 53.6836 56.4738 53.6836 57.9833V78.4833C53.6836 79.9929 54.9073 81.2167 56.4169 81.2167H90.5836C92.0932 81.2167 93.3169 79.9929 93.3169 78.4833V57.9833C93.3169 56.4738 92.0932 55.25 90.5836 55.25ZM91.2669 77.1167C91.2669 78.2489 90.3491 79.1667 89.2169 79.1667H57.7836C56.6514 79.1667 55.7336 78.2489 55.7336 77.1167V59.35C55.7336 58.2178 56.6514 57.3 57.7836 57.3H89.2169C90.3491 57.3 91.2669 58.2178 91.2669 59.35V77.1167Z" fill="white"/>
</g>
<defs>
<filter id="filter0_d" x="0" y="0" width="144.1" height="142.448" filterUnits="userSpaceOnUse" color-interpolation-filters="sRGB">
<feFlood flood-opacity="0" result="BackgroundImageFix"/>
<feColorMatrix in="SourceAlpha" type="matrix" values="0 0 0 0 0 0 0 0 0 0 0 0 0 0 0 0 0 0 127 0"/>
<feOffset dy="4"/>
<feGaussianBlur stdDeviation="10"/>
<feColorMatrix type="matrix" values="0 0 0 0 0 0 0 0 0 0 0 0 0 0 0 0 0 0 0.1 0"/>
<feBlend mode="normal" in2="BackgroundImageFix" result="effect1_dropShadow"/>
<feBlend mode="normal" in="SourceGraphic" in2="effect1_dropShadow" result="shape"/>
</filter>
<clipPath id="clip0">
<rect width="41" height="41" fill="white" transform="translate(53 45)"/>
</clipPath>
</defs>
</svg>
