<svg width="201" height="281" viewBox="0 0 201 281" fill="none" xmlns="http://www.w3.org/2000/svg">
<path fill-rule="evenodd" clip-rule="evenodd" d="M76.3541 32C73.4349 32 70.5158 32 67.5967 32.2923V75.838C70.5158 75.5458 73.4349 75.2535 76.3541 75.2535C85.1114 75.2535 92.993 76.4225 101.166 79.0528H101.458C105.837 80.5141 109.924 82.2676 114.011 84.3134L114.302 84.6056C114.594 84.6056 114.886 84.8979 115.178 84.8979C121.308 88.1127 126.855 92.2042 132.109 97.1725C137.655 102.433 142.326 108.278 146.121 114.708V115C153.71 127.275 157.505 141.887 157.505 156.208C157.505 167.606 155.17 178.419 150.791 188.356L178.815 227.225C192.827 207.06 201 182.511 201 156.208C200.708 87.5282 144.953 32 76.3541 32ZM101.166 233.655L127.147 270.187C111.675 277.201 94.4525 281 76.3541 281C7.755 281 -48 225.18 -48 156.5C-48 119.092 -31.653 85.4824 -5.67292 62.6866V156.5V156.792C-3.04572 195.37 20.3072 229.271 58.8394 235.408C61.4666 235.993 64.3857 236.577 67.3048 236.87C70.2239 237.162 73.143 237.454 76.0621 237.454C84.8195 237.454 93.2849 236.285 101.166 233.655Z" fill="#151E3C"/>
<path fill-rule="evenodd" clip-rule="evenodd" d="M97.5805 88C117.048 94.0969 130.736 105.71 140.469 120.517L114.918 153.904L201 268.003C188.833 282.229 149.899 260.744 133.777 268.583L81.155 198.324L75.3757 190.485L66.8588 179.163L65.9463 178.001V130.388L97.5805 88ZM57.4294 166.388L48 153.904L57.4294 141.42V166.388Z" fill="#F4F4F4"/>
<path fill-rule="evenodd" clip-rule="evenodd" d="M0 0H64V225C28.0591 217.442 2.83744 190.407 0 152.907V0Z" fill="#F4F4F4"/>
</svg>
