<svg width="145" height="143" viewBox="0 0 145 143" fill="none" xmlns="http://www.w3.org/2000/svg">
<g filter="url(#filter0_d)">
<ellipse cx="72.0498" cy="67.2241" rx="52.0502" ry="51.2241" fill="#122042"/>
</g>
<g clip-path="url(#clip0)">
<path d="M58.4668 82.5833H62.5668V85.3166C62.5668 85.694 62.2609 86 61.8835 86H59.1501C58.7727 86 58.4668 85.694 58.4668 85.3166V82.5833Z" fill="white"/>
<path d="M84.4336 82.5833H88.5336V85.3166C88.5336 85.694 88.2277 86 87.8503 86H85.1169C84.7395 86 84.4336 85.694 84.4336 85.3166V82.5833Z" fill="white"/>
<path d="M74.8673 53.2H72.134C71.7566 53.2 71.4507 53.5059 71.4507 53.8833V55.25C71.4507 55.6274 71.7566 55.9333 72.134 55.9333H74.8673C75.2447 55.9333 75.5507 55.6274 75.5507 55.25V53.8833C75.5507 53.5059 75.2447 53.2 74.8673 53.2Z" fill="white"/>
<path d="M79.6501 45H67.3501C66.5953 45 65.9834 45.6119 65.9834 46.3667V50.4667C65.9834 51.2215 66.5953 51.8333 67.3501 51.8333H79.6501C80.4049 51.8333 81.0167 51.2215 81.0167 50.4667V46.3667C81.0167 45.6119 80.4049 45 79.6501 45ZM77.4019 48.9018L76.7186 49.5852C76.5231 49.7823 76.2277 49.8415 75.9714 49.7351C75.715 49.6286 75.5484 49.3776 75.5501 49.1H70.0834C69.706 49.1 69.4001 48.7941 69.4001 48.4167C69.4001 48.0393 69.706 47.7333 70.0834 47.7333H75.5501C75.549 47.5517 75.6203 47.3771 75.7482 47.2482C75.8765 47.1188 76.0512 47.046 76.2334 47.046C76.4156 47.046 76.5903 47.1188 76.7186 47.2482L77.4019 47.9315C77.5313 48.0598 77.604 48.2345 77.604 48.4167C77.604 48.5989 77.5313 48.7735 77.4019 48.9018Z" fill="white"/>
<path d="M64.897 71.5954L66.8787 70.7412L64.7057 68.2334L62.4233 70.7617L64.3435 71.5885C64.5201 71.6625 64.7186 71.665 64.897 71.5954Z" fill="white"/>
<path d="M81.8504 66.7027C81.587 66.8149 81.3031 66.8708 81.0168 66.8667C80.742 66.8661 80.4701 66.8104 80.2173 66.7027L77.9623 65.7392L76.6981 67.222L83.5314 75.3058C83.7767 75.5926 83.7431 76.024 83.4563 76.2693C83.1694 76.5146 82.7381 76.481 82.4928 76.1942L75.9669 68.4383L73.6573 69.436C73.3911 69.5469 73.1051 69.6027 72.8168 69.6C72.542 69.5995 72.2701 69.5437 72.0173 69.436L69.7691 68.4725L68.2794 70.2833L72.6459 75.3127C72.8754 75.5976 72.8398 76.0126 72.5652 76.2543C72.2906 76.496 71.8743 76.4785 71.6209 76.2147L67.8216 71.8413L65.4231 72.8663C65.1672 72.9702 64.8929 73.0214 64.6168 73.0167C64.342 73.0161 64.0701 72.9604 63.8173 72.8527L61.4598 71.8413L57.1001 76.693V77.1167C57.1001 77.4941 57.406 77.8 57.7834 77.8H89.2168C89.5942 77.8 89.9001 77.4941 89.9001 77.1167V72.4905L84.1669 65.7118L81.8504 66.7027Z" fill="white"/>
<path d="M73.1246 68.1787L75.0447 67.3518L72.8991 64.8167L70.7261 67.386L72.5779 68.1787C72.7522 68.2547 72.9503 68.2547 73.1246 68.1787Z" fill="white"/>
<path d="M89.2168 58.6667H57.7834C57.406 58.6667 57.1001 58.9726 57.1001 59.35V74.6499L63.6738 67.3314C63.9408 67.0506 64.3113 66.8916 64.6988 66.8916C65.0862 66.8916 65.4567 67.0506 65.7238 67.3314L67.3501 69.2242L71.8601 63.9284C72.1261 63.6458 72.497 63.4855 72.8851 63.4855C73.2732 63.4855 73.6441 63.6458 73.9101 63.9284L75.8303 66.1834L80.0601 61.195C80.3261 60.9124 80.697 60.7522 81.0851 60.7522C81.4732 60.7522 81.8441 60.9124 82.1101 61.195L89.9001 70.3722V59.35C89.9001 58.9726 89.5942 58.6667 89.2168 58.6667Z" fill="white"/>
<path d="M81.3243 65.4453L83.2444 64.6185L81.0988 62.0833L78.9121 64.6458L80.7708 65.4453C80.947 65.5234 81.148 65.5234 81.3243 65.4453Z" fill="white"/>
<path d="M90.5836 55.25H56.4169C54.9073 55.25 53.6836 56.4738 53.6836 57.9833V78.4833C53.6836 79.9929 54.9073 81.2167 56.4169 81.2167H90.5836C92.0932 81.2167 93.3169 79.9929 93.3169 78.4833V57.9833C93.3169 56.4738 92.0932 55.25 90.5836 55.25ZM91.2669 77.1167C91.2669 78.2489 90.3491 79.1667 89.2169 79.1667H57.7836C56.6514 79.1667 55.7336 78.2489 55.7336 77.1167V59.35C55.7336 58.2178 56.6514 57.3 57.7836 57.3H89.2169C90.3491 57.3 91.2669 58.2178 91.2669 59.35V77.1167Z" fill="white"/>
</g>
<defs>
<filter id="filter0_d" x="-0.000488281" y="0" width="144.1" height="142.448" filterUnits="userSpaceOnUse" color-interpolation-filters="sRGB">
<feFlood flood-opacity="0" result="BackgroundImageFix"/>
<feColorMatrix in="SourceAlpha" type="matrix" values="0 0 0 0 0 0 0 0 0 0 0 0 0 0 0 0 0 0 127 0"/>
<feOffset dy="4"/>
<feGaussianBlur stdDeviation="10"/>
<feColorMatrix type="matrix" values="0 0 0 0 0 0 0 0 0 0 0 0 0 0 0 0 0 0 0.1 0"/>
<feBlend mode="normal" in2="BackgroundImageFix" result="effect1_dropShadow"/>
<feBlend mode="normal" in="SourceGraphic" in2="effect1_dropShadow" result="shape"/>
</filter>
<clipPath id="clip0">
<rect width="41" height="41" fill="white" transform="translate(53 45)"/>
</clipPath>
</defs>
</svg>
