<svg width="145" height="143" viewBox="0 0 145 143" fill="none" xmlns="http://www.w3.org/2000/svg">
<g filter="url(#filter0_d)">
<ellipse cx="72.0502" cy="67.2241" rx="52.0502" ry="51.2241" fill="#122042"/>
</g>
<path fill-rule="evenodd" clip-rule="evenodd" d="M66.1809 67.8792C66.0488 66.6221 65.2538 65.6072 64.0617 65.1794C62.4711 64.6086 61.0256 64.2553 59.6143 64.1198V67.0544C59.6143 67.7669 59.0365 68.3447 58.324 68.3447C57.6114 68.3447 57.0337 67.7669 57.0337 67.0544V64.1162C55.6161 64.2484 54.1646 64.6008 52.5666 65.1744C51.3712 65.6035 50.5645 66.6393 50.4453 67.905C50.3073 69.3702 50.1353 72.1368 50.0145 73.4317C49.9241 74.4011 50.2585 75.327 50.9416 76.0101L53.1615 78.23V85.8156C53.1615 88.4577 56.1992 89.9945 58.3242 88.3939C60.4492 89.9945 63.487 88.4577 63.487 85.8156V78.1935C64.2044 77.5734 65.0138 76.6716 65.7032 75.9822C66.379 75.3063 66.7117 74.4113 66.6379 73.455C66.5065 71.7513 66.3473 69.4625 66.1809 67.8792Z" fill="white"/>
<path fill-rule="evenodd" clip-rule="evenodd" d="M80.6705 55.5804V46.9785C80.6705 45.8877 79.7829 45 78.6921 45H65.187C64.0962 45 63.2085 45.8877 63.2085 46.9785V55.5804C63.2085 56.6712 64.0962 57.5589 65.187 57.5589H65.4845L64.5628 59.6045C64.386 59.9551 64.371 60.3819 64.5594 60.7604C64.8768 61.3978 65.6508 61.6573 66.2882 61.34L73.8903 57.5589H78.6921C79.7827 57.5589 80.6705 56.6711 80.6705 55.5804Z" fill="white"/>
<path d="M85.6603 63.0422C87.9745 63.0422 89.8504 61.1662 89.8504 58.852C89.8504 56.5379 87.9745 54.6619 85.6603 54.6619C83.3462 54.6619 81.4702 56.5379 81.4702 58.852C81.4702 61.1662 83.3462 63.0422 85.6603 63.0422Z" fill="white"/>
<path fill-rule="evenodd" clip-rule="evenodd" d="M93.9904 73.4549C93.8591 71.7513 93.6998 69.4625 93.5335 67.8792C93.4013 66.6221 92.6063 65.6072 91.4142 65.1794C89.8237 64.6086 88.3781 64.2553 86.9668 64.1198V67.0544C86.9668 67.7669 86.3891 68.3447 85.6765 68.3447C84.9639 68.3447 84.3862 67.7669 84.3862 67.0544V64.1162C82.9687 64.2484 81.5171 64.6008 79.9191 65.1744C78.7238 65.6035 77.9171 66.6393 77.7979 67.905C77.6598 69.3702 77.4878 72.1368 77.3671 73.4317C77.2767 74.4011 77.611 75.327 78.2942 76.0101L80.514 78.23V85.8156C80.514 88.4577 83.5517 89.9945 85.6768 88.3939C87.8017 89.9945 90.8395 88.4577 90.8395 85.8156V78.1935C91.557 77.5734 92.3663 76.6716 93.0557 75.9822C93.7315 75.3063 94.0641 74.4113 93.9904 73.4549Z" fill="white"/>
<path d="M58.3078 63.0422C60.6219 63.0422 62.4979 61.1662 62.4979 58.852C62.4979 56.5379 60.6219 54.6619 58.3078 54.6619C55.9937 54.6619 54.1177 56.5379 54.1177 58.852C54.1177 61.1662 55.9937 63.0422 58.3078 63.0422Z" fill="white"/>
<defs>
<filter id="filter0_d" x="0" y="0" width="144.1" height="142.448" filterUnits="userSpaceOnUse" color-interpolation-filters="sRGB">
<feFlood flood-opacity="0" result="BackgroundImageFix"/>
<feColorMatrix in="SourceAlpha" type="matrix" values="0 0 0 0 0 0 0 0 0 0 0 0 0 0 0 0 0 0 127 0"/>
<feOffset dy="4"/>
<feGaussianBlur stdDeviation="10"/>
<feColorMatrix type="matrix" values="0 0 0 0 0 0 0 0 0 0 0 0 0 0 0 0 0 0 0.1 0"/>
<feBlend mode="normal" in2="BackgroundImageFix" result="effect1_dropShadow"/>
<feBlend mode="normal" in="SourceGraphic" in2="effect1_dropShadow" result="shape"/>
</filter>
</defs>
</svg>
