<svg width="145" height="143" viewBox="0 0 145 143" fill="none" xmlns="http://www.w3.org/2000/svg">
<g filter="url(#filter0_d)">
<ellipse cx="72.0502" cy="67.2241" rx="52.0502" ry="51.2241" fill="#122042"/>
</g>
<g clip-path="url(#clip0)">
<path d="M78.6802 48.1133C78.6802 47.4985 78.1817 47 77.5669 47H66.4341C65.8193 47 65.3208 47.4985 65.3208 48.1133V49.375H78.6802V48.1133Z" fill="white"/>
<path d="M55.0996 62.1509C54.7643 62.3521 54.5591 62.7144 54.5591 63.1055V64.961H57.5278C58.1427 64.961 58.6411 65.4594 58.6411 66.0742C58.6411 66.6891 58.1427 67.1875 57.5278 67.1875H54.5591V69.4141H57.5278C58.1427 69.4141 58.6411 69.9125 58.6411 70.5274C58.6411 71.1422 58.1427 71.6407 57.5278 71.6407H54.5591V73.8672H57.5278C58.1427 73.8672 58.6411 74.3657 58.6411 74.9805C58.6411 75.5953 58.1427 76.0938 57.5278 76.0938H54.5591V78.3203H57.5278C58.1427 78.3203 58.6411 78.8188 58.6411 79.4336C58.6411 80.0484 58.1427 80.5469 57.5278 80.5469H54.5591V82.7735H54.1138C53.4989 82.7735 53.0005 83.2719 53.0005 83.8867C53.0005 84.5016 53.4989 85 54.1138 85H60.8677V58.69L55.0996 62.1509Z" fill="white"/>
<path d="M79.7935 51.6016H64.2075C63.5927 51.6016 63.0942 52.1 63.0942 52.7148V85H80.9067V52.7148C80.9067 52.1 80.4083 51.6016 79.7935 51.6016ZM68.6606 79.4336C68.6606 80.0484 68.1622 80.5469 67.5474 80.5469C66.9325 80.5469 66.4341 80.0484 66.4341 79.4336V57.168C66.4341 56.5531 66.9325 56.0547 67.5474 56.0547C68.1622 56.0547 68.6606 56.5531 68.6606 57.168V79.4336ZM73.1138 79.4336C73.1138 80.0484 72.6153 80.5469 72.0005 80.5469C71.3857 80.5469 70.8872 80.0484 70.8872 79.4336V57.168C70.8872 56.5531 71.3857 56.0547 72.0005 56.0547C72.6153 56.0547 73.1138 56.5531 73.1138 57.168V79.4336ZM77.5669 79.4336C77.5669 80.0484 77.0684 80.5469 76.4536 80.5469C75.8388 80.5469 75.3403 80.0484 75.3403 79.4336V57.168C75.3403 56.5531 75.8388 56.0547 76.4536 56.0547C77.0684 56.0547 77.5669 56.5531 77.5669 57.168V79.4336Z" fill="white"/>
<path d="M89.8872 82.7735H89.4419V80.5469H86.4731C85.8583 80.5469 85.3599 80.0484 85.3599 79.4336C85.3599 78.8188 85.8583 78.3203 86.4731 78.3203H89.4419V76.0938H86.4731C85.8583 76.0938 85.3599 75.5953 85.3599 74.9805C85.3599 74.3657 85.8583 73.8672 86.4731 73.8672H89.4419V71.6407H86.4731C85.8583 71.6407 85.3599 71.1422 85.3599 70.5274C85.3599 69.9125 85.8583 69.4141 86.4731 69.4141H89.4419V67.1875H86.4731C85.8583 67.1875 85.3599 66.6891 85.3599 66.0742C85.3599 65.4594 85.8583 64.961 86.4731 64.961H89.4419V63.1055C89.4419 62.7144 89.2367 62.3521 88.9014 62.1509L83.1333 58.69V85H89.8872C90.502 85 91.0005 84.5016 91.0005 83.8867C91.0005 83.2719 90.502 82.7735 89.8872 82.7735Z" fill="white"/>
</g>
<defs>
<filter id="filter0_d" x="0" y="0" width="144.1" height="142.448" filterUnits="userSpaceOnUse" color-interpolation-filters="sRGB">
<feFlood flood-opacity="0" result="BackgroundImageFix"/>
<feColorMatrix in="SourceAlpha" type="matrix" values="0 0 0 0 0 0 0 0 0 0 0 0 0 0 0 0 0 0 127 0"/>
<feOffset dy="4"/>
<feGaussianBlur stdDeviation="10"/>
<feColorMatrix type="matrix" values="0 0 0 0 0 0 0 0 0 0 0 0 0 0 0 0 0 0 0.1 0"/>
<feBlend mode="normal" in2="BackgroundImageFix" result="effect1_dropShadow"/>
<feBlend mode="normal" in="SourceGraphic" in2="effect1_dropShadow" result="shape"/>
</filter>
<clipPath id="clip0">
<rect width="38" height="38" fill="white" transform="translate(53.0005 47)"/>
</clipPath>
</defs>
</svg>
