<svg width="145" height="143" viewBox="0 0 145 143" fill="none" xmlns="http://www.w3.org/2000/svg">
<g filter="url(#filter0_d)">
<ellipse cx="72.0502" cy="67.2241" rx="52.0502" ry="51.2241" fill="#122042"/>
</g>
<g clip-path="url(#clip0)">
<path d="M77.6298 74.7209C75.4017 77.5683 74.9924 81.4371 76.5762 84.6873C78.1597 87.9378 81.4585 90 85.0739 90C89.4946 89.9996 93.3249 86.9353 94.2952 82.6222C95.2658 78.3096 93.1171 73.8999 89.1226 72.0061C85.1281 70.1124 80.3547 71.2398 77.6298 74.7209ZM83.5742 75.8573C83.5742 75.5242 83.8444 75.2539 84.1775 75.2539C84.5106 75.2539 84.7809 75.5242 84.7809 75.8573V81.1021L87.3016 82.7173C87.4893 82.8308 87.6001 83.0371 87.5918 83.2562C87.5836 83.475 87.4571 83.6726 87.2615 83.7716C87.0663 83.8706 86.8321 83.8557 86.6507 83.7331L83.8519 81.9395C83.6787 81.8288 83.5742 81.6371 83.5742 81.4316V75.8573Z" fill="white"/>
<path d="M57.7491 81.1948C58.4008 81.8441 59.2842 82.2078 60.2045 82.2051H60.2218L74.5315 82.1261C74.4538 81.6037 74.4145 81.0757 74.4145 80.5474C74.4137 74.8874 78.8371 70.2141 84.4885 69.9038L84.4135 55.3136L78.7468 55.3407H78.7236C76.1389 55.3403 74.0401 53.2514 74.0276 50.6663L74.0005 45L60.0431 45.0672C58.1156 45.0762 56.5604 46.6463 56.5699 48.5742L56.7144 78.7318C56.7168 79.6581 57.0892 80.545 57.7491 81.1948ZM71.9873 67.2743H69.9411C69.608 67.2743 69.3378 67.0045 69.3378 66.671C69.3378 66.3379 69.608 66.0676 69.9411 66.0676H71.9873C72.3208 66.0676 72.5907 66.3379 72.5907 66.671C72.5907 67.0045 72.3208 67.2743 71.9873 67.2743ZM62.0531 60.9509H79.0414C79.3749 60.9509 79.6448 61.2211 79.6448 61.5542C79.6448 61.8873 79.3749 62.1576 79.0414 62.1576H62.0531C61.7196 62.1576 61.4498 61.8873 61.4498 61.5542C61.4498 61.2211 61.7196 60.9509 62.0531 60.9509ZM62.0531 66.0676H67.3482C67.6817 66.0676 67.9516 66.3379 67.9516 66.671C67.9516 67.0045 67.6817 67.2743 67.3482 67.2743H62.0531C61.7196 67.2743 61.4498 67.0045 61.4498 66.671C61.4498 66.3379 61.7196 66.0676 62.0531 66.0676Z" fill="white"/>
<path d="M76.268 53.1237C76.9201 53.773 77.8035 54.1368 78.7238 54.1344H78.7407L83.5735 54.1109L75.2109 45.8453L75.2341 50.6608C75.2357 51.5871 75.6081 52.4736 76.268 53.1237Z" fill="white"/>
</g>
<defs>
<filter id="filter0_d" x="0" y="0" width="144.1" height="142.448" filterUnits="userSpaceOnUse" color-interpolation-filters="sRGB">
<feFlood flood-opacity="0" result="BackgroundImageFix"/>
<feColorMatrix in="SourceAlpha" type="matrix" values="0 0 0 0 0 0 0 0 0 0 0 0 0 0 0 0 0 0 127 0"/>
<feOffset dy="4"/>
<feGaussianBlur stdDeviation="10"/>
<feColorMatrix type="matrix" values="0 0 0 0 0 0 0 0 0 0 0 0 0 0 0 0 0 0 0.1 0"/>
<feBlend mode="normal" in2="BackgroundImageFix" result="effect1_dropShadow"/>
<feBlend mode="normal" in="SourceGraphic" in2="effect1_dropShadow" result="shape"/>
</filter>
<clipPath id="clip0">
<rect width="45" height="45" fill="white" transform="translate(53 45)"/>
</clipPath>
</defs>
</svg>
