<svg width="145" height="143" viewBox="0 0 145 143" fill="none" xmlns="http://www.w3.org/2000/svg">
<g filter="url(#filter0_d)">
<ellipse cx="72.0498" cy="67.2241" rx="52.0502" ry="51.2241" fill="#122042"/>
</g>
<path d="M67.9578 80.25H70.6672L70.4281 79.2937C70.3484 78.975 70.0297 78.6562 69.6313 78.6562H68.5156C67.2406 78.6562 66.0453 78.0187 65.2484 76.9828L62.7781 73.5562L59.75 74.8312L66.6031 79.7718C66.9219 80.0906 67.4797 80.25 67.9578 80.25Z" fill="white"/>
<path d="M79.6717 55.5469H65.3279C64.292 55.5469 63.4154 56.1844 63.0967 57.1406H81.9029C81.5842 56.1844 80.7076 55.5469 79.6717 55.5469Z" fill="white"/>
<path d="M79.6717 53.9531C80.4686 53.9531 81.2654 54.1922 81.9029 54.6703C81.2654 51.3234 78.9545 48.4547 75.6873 47.3391V52.3594H74.0936V45.9844C74.0936 45.5062 73.7748 45.1875 73.2967 45.1875H71.7029C71.2248 45.1875 70.9061 45.5062 70.9061 45.9844V52.3594H69.3123V47.3391C66.0451 48.4547 63.6545 51.2437 63.0967 54.6703C63.7342 54.1922 64.5311 53.9531 65.3279 53.9531H79.6717Z" fill="white"/>
<path d="M76.4049 78.6563H75.2893C74.8908 78.6563 74.5721 78.8953 74.4924 79.2938L74.333 80.25H77.0424C77.5205 80.25 78.0783 80.0907 78.4768 79.7719L83.6565 75.9469V73.9547L82.2221 73.3969L79.6721 76.9828C78.9549 78.0188 77.7596 78.6563 76.4049 78.6563Z" fill="white"/>
<path d="M88.4375 71.9625C88.4375 71.6437 87.8 71.1656 86.8438 71.1656C85.8875 71.1656 85.25 71.6437 85.25 71.9625V79.2937L88.4375 74.8312V71.9625Z" fill="white"/>
<path d="M64.5313 63.9937V64.4719C64.5313 66.5437 65.6469 68.3766 67.4 69.3328L69.7906 70.6078C71.4641 71.4844 73.4563 71.4844 75.1297 70.6078L77.5203 69.3328C79.2734 68.3766 80.3891 66.4641 80.3891 64.4719V63.9937L81.8234 63.1172C81.9031 63.0375 81.9828 62.9578 81.9828 62.7984V60.5672C81.9828 60.4078 81.8234 60.2484 81.5844 60.2484C81.5047 60.2484 81.425 60.2484 81.425 60.3281L80.4688 61.4437V58.7344H64.5313V61.4437L63.4953 60.4078C63.3359 60.2484 63.0969 60.3281 63.0172 60.4078C62.9375 60.4875 62.9375 60.5672 62.9375 60.5672V62.7984C62.9375 62.8781 63.0172 63.0375 63.0969 63.1172L64.5313 63.9937Z" fill="white"/>
<path d="M88.4376 86.625V82.8797L85.9673 86.625H88.4376Z" fill="white"/>
<path d="M90.0312 75.389V75.4687H89.9516L79.6719 89.8125H91.625V73.1578L90.0312 75.389ZM90.0312 88.2187H82.9391L90.0312 77.6203V88.2187Z" fill="white"/>
<path d="M83.6562 77.939L79.3531 81.0468C78.6359 81.525 77.8391 81.8437 77.0422 81.8437H73.2969V89.8125H77.6797L83.6562 81.525V77.939Z" fill="white"/>
<path d="M62.1406 88.2188H67.7188V89.8125H62.1406V88.2188Z" fill="white"/>
<path d="M62.1406 85.0312H67.7188V86.625H62.1406V85.0312Z" fill="white"/>
<path d="M75.3689 77.0625H76.4846C77.2814 77.0625 77.9986 76.6641 78.3971 76.0266L80.708 72.8391L77.1221 71.4844L75.9268 72.1219C73.7752 73.3172 71.2252 73.3172 69.0736 72.1219L67.8783 71.4844L64.3721 72.9187L66.6033 76.0266C67.0814 76.6641 67.7986 77.0625 68.5158 77.0625H69.6314C70.7471 77.0625 71.7033 77.7797 71.9424 78.8953L72.5002 80.9672L73.058 78.8953C73.2971 77.7797 74.2533 77.0625 75.3689 77.0625Z" fill="white"/>
<path d="M65.6469 81.0469L58.1562 75.6281C56.1641 76.9828 54.9688 79.214 54.9688 81.6047V89.8125H60.5469V83.4375H61.9016L61.3438 81.2062L62.8578 80.8078L63.4953 83.3578H69.3125V89.7328H71.7031V81.8437H67.9578C67.0812 81.8437 66.2844 81.6047 65.6469 81.0469Z" fill="white"/>
<defs>
<filter id="filter0_d" x="-0.000488281" y="0" width="144.1" height="142.448" filterUnits="userSpaceOnUse" color-interpolation-filters="sRGB">
<feFlood flood-opacity="0" result="BackgroundImageFix"/>
<feColorMatrix in="SourceAlpha" type="matrix" values="0 0 0 0 0 0 0 0 0 0 0 0 0 0 0 0 0 0 127 0"/>
<feOffset dy="4"/>
<feGaussianBlur stdDeviation="10"/>
<feColorMatrix type="matrix" values="0 0 0 0 0 0 0 0 0 0 0 0 0 0 0 0 0 0 0.1 0"/>
<feBlend mode="normal" in2="BackgroundImageFix" result="effect1_dropShadow"/>
<feBlend mode="normal" in="SourceGraphic" in2="effect1_dropShadow" result="shape"/>
</filter>
</defs>
</svg>
