<svg width="145" height="143" viewBox="0 0 145 143" fill="none" xmlns="http://www.w3.org/2000/svg">
<g filter="url(#filter0_d)">
<ellipse cx="72.0502" cy="67.2241" rx="52.0502" ry="51.2241" fill="#122042"/>
</g>
<path d="M91.0753 81.4139V87H53.0005V81.4127C53.0005 78.7748 55.2747 75.5274 58.0528 74.2078L64.2347 71.2708L68.5261 80.2135L70.7233 74.2563C71.1565 74.3382 71.5861 74.4474 72.0379 74.4474C72.4898 74.4474 72.918 74.3382 73.3525 74.2563L75.438 79.9206L79.6449 71.1715L86.0267 74.2066C88.8012 75.5262 91.0753 78.7735 91.0753 81.4139ZM58.6164 61.8353V57.8009C58.6164 57.1169 58.9726 56.5173 59.5102 56.1722C60.2314 49.8934 65.5717 45 72.0404 45C78.5091 45 83.8506 49.8934 84.5731 56.1722C85.1094 56.5173 85.4656 57.1169 85.4656 57.8009V61.8353C85.4656 62.9065 84.5979 63.7755 83.5254 63.7755C82.4529 63.7755 81.5852 62.9065 81.5852 61.8353V60.9874C80.535 66.2694 76.6682 71.1727 72.0416 71.1727C67.4151 71.1727 63.5483 66.2694 62.4981 60.9874V61.8353C62.4981 62.7042 61.9209 63.4316 61.1326 63.6787C61.9047 66.3066 63.6178 68.5771 65.9838 70.0667C66.4208 69.9227 66.9719 69.95 67.507 70.2281C68.366 70.6749 68.8042 71.5439 68.4789 72.1646C68.1549 72.7852 67.1966 72.9243 66.3326 72.4761C65.702 72.1472 65.3023 71.5948 65.2601 71.0784C62.5502 69.3454 60.6286 66.6927 59.8354 63.6327C59.1229 63.3472 58.6164 62.6521 58.6164 61.8353ZM60.8322 55.7191C60.8905 55.7228 60.9464 55.7241 61.0023 55.7452C61.1425 55.7973 61.2443 55.8979 61.3151 56.0158C61.7359 56.1945 62.0711 56.521 62.2771 56.9257C62.8494 51.5618 66.9955 48.7241 72.0379 48.7241C77.0803 48.7241 81.2264 51.5618 81.7987 56.9257C82.083 56.3683 82.6229 55.9699 83.2697 55.8867C82.4305 50.4334 77.7208 46.2401 72.0379 46.2401C66.4133 46.2414 61.7409 50.349 60.8322 55.7191Z" fill="white"/>
<defs>
<filter id="filter0_d" x="0" y="0" width="144.1" height="142.448" filterUnits="userSpaceOnUse" color-interpolation-filters="sRGB">
<feFlood flood-opacity="0" result="BackgroundImageFix"/>
<feColorMatrix in="SourceAlpha" type="matrix" values="0 0 0 0 0 0 0 0 0 0 0 0 0 0 0 0 0 0 127 0"/>
<feOffset dy="4"/>
<feGaussianBlur stdDeviation="10"/>
<feColorMatrix type="matrix" values="0 0 0 0 0 0 0 0 0 0 0 0 0 0 0 0 0 0 0.1 0"/>
<feBlend mode="normal" in2="BackgroundImageFix" result="effect1_dropShadow"/>
<feBlend mode="normal" in="SourceGraphic" in2="effect1_dropShadow" result="shape"/>
</filter>
</defs>
</svg>
