<svg width="28" height="26" viewBox="0 0 28 26" fill="none" xmlns="http://www.w3.org/2000/svg">
<path d="M27.994 7.5706C27.994 3.88936 25.01 0.905308 21.3288 0.905308C17.6476 0.905308 14.6635 3.88936 14.6635 7.5706C14.6635 11.2518 17.6476 14.2358 21.3288 14.2358C22.0853 14.2358 22.8095 14.104 23.4875 13.8715C21.9875 22.4742 15.2791 28.022 21.4978 23.4561C28.3934 18.393 28.0014 7.7743 27.9937 7.5797C27.9937 7.57667 27.994 7.57397 27.994 7.5706Z" fill="#981414"/>
<path d="M13.33 7.5706C13.33 3.88936 10.3459 0.905308 6.66468 0.905308C2.98344 0.905308 -0.000617981 3.88936 -0.000617981 7.5706C-0.000617981 11.2518 2.98349 14.2358 6.66473 14.2358C7.42133 14.2358 8.14546 14.104 8.82341 13.8715C7.32345 22.4742 0.614998 28.022 6.83371 23.4561C13.7293 18.393 13.3374 7.7743 13.3296 7.5797C13.3296 7.57667 13.33 7.57397 13.33 7.5706Z" fill="#981414"/>
</svg>
