<svg width="297" height="308" viewBox="0 0 297 308" fill="none" xmlns="http://www.w3.org/2000/svg">
<circle cx="148.5" cy="159.5" r="148.5" fill="#F4F4F4"/>
<g filter="url(#filter0_d)">
<path fill-rule="evenodd" clip-rule="evenodd" d="M175.253 236.113C167.514 238.6 159.16 239.968 150.561 239.968C147.613 239.968 144.665 239.844 141.84 239.471H141.717C138.891 239.222 136.066 238.725 133.241 238.103H133.118C94.4228 231.759 71.2057 197.554 68.5032 158.498V158.249V63.2201C42.4608 86.3554 26 120.188 26 158C26 227.654 81.7701 284 150.439 284C168.496 284 185.694 280.144 201.172 273.054L175.253 236.113ZM150.561 32C147.613 32 144.665 32.1244 141.84 32.3731V76.5291C144.665 76.2804 147.613 76.0316 150.561 76.0316C159.283 76.0316 167.268 77.2754 175.375 80.0118L175.867 80.1362C180.166 81.6288 184.343 83.3702 188.274 85.4847L188.642 85.6091C188.888 85.7335 189.134 85.8578 189.379 85.9822C195.521 89.3406 201.172 93.4452 206.209 98.2962C211.614 103.52 216.404 109.491 220.213 115.959L220.335 116.083C227.829 128.397 231.637 143.323 231.637 157.876C231.637 169.443 229.303 180.389 225.003 190.464L252.889 229.769C266.892 209.37 275 184.618 275 158C275 88.3455 219.353 32 150.561 32Z" fill="#17264C"/>
<path d="M175.56 235.897L175.401 235.671L175.138 235.756C167.435 238.231 159.121 239.593 150.561 239.593C147.623 239.593 144.692 239.469 141.889 239.099L141.864 239.096H141.84H141.733C138.935 238.848 136.132 238.355 133.321 237.736L133.282 237.728H133.241H133.148C94.6959 231.408 71.576 197.406 68.8782 158.485V158.249V63.2201V62.3854L68.2542 62.9398C42.1348 86.1434 25.625 120.076 25.625 158C25.625 227.857 81.5588 284.375 150.439 284.375C168.55 284.375 185.801 280.508 201.328 273.395L201.738 273.208L201.479 272.839L175.56 235.897ZM141.807 31.9996L141.465 32.0297V32.3731V76.5291V76.9386L141.873 76.9027C144.699 76.6538 147.632 76.4066 150.561 76.4066C159.245 76.4066 167.189 77.6445 175.256 80.3672L175.269 80.3718L175.283 80.3754L175.759 80.4958C180.039 81.9824 184.191 83.7146 188.096 85.815L188.124 85.8299L188.154 85.84L188.497 85.9558L188.841 86.1302L189.199 86.3113C189.201 86.3122 189.203 86.3132 189.205 86.3142C195.317 89.6566 200.938 93.7408 205.949 98.5662C211.331 103.768 216.1 109.712 219.889 116.149L219.913 116.189L219.946 116.222L220.038 116.315C227.477 128.558 231.262 143.399 231.262 157.876C231.262 169.392 228.938 180.288 224.659 190.317L224.576 190.51L224.698 190.681L252.583 229.986L252.894 230.424L253.198 229.981C267.244 209.521 275.375 184.695 275.375 158C275.375 88.1428 219.564 31.625 150.561 31.625C147.603 31.625 144.644 31.7498 141.807 31.9996Z" stroke="white" stroke-width="0.75"/>
</g>
<g filter="url(#filter1_d)">
<path fill-rule="evenodd" clip-rule="evenodd" d="M134.972 166.156L126 153.296L134.972 140.561V166.156ZM173.32 86C192.002 92.2426 205.154 103.979 214.495 119.336L190.282 153.171L273 269.908C261.324 284.391 223.959 262.542 208.472 270.533L157.834 198.617L152.18 190.502L143.945 178.891V178.766L143.084 177.517V129.074L173.32 86Z" fill="#B5191A"/>
<path d="M134.665 166.37L135.347 167.348V166.156V140.561V139.377L134.666 140.345L125.693 153.08L125.542 153.295L125.692 153.51L134.665 166.37ZM173.439 85.6443L173.174 85.5557L173.013 85.7846L142.778 128.859L142.709 128.956V129.074V177.517V177.634L142.776 177.73L143.57 178.882V178.891V179.01L143.639 179.107L151.872 190.716L151.874 190.719L157.526 198.832L157.527 198.833L208.166 270.748L208.354 271.016L208.644 270.866C212.41 268.923 217.552 268.776 223.402 269.473C228.057 270.028 233.106 271.108 238.195 272.196C239.492 272.474 240.792 272.752 242.089 273.022C248.455 274.348 254.743 275.481 260.177 275.367C265.613 275.253 270.272 273.889 273.292 270.144L273.47 269.923L273.306 269.691L190.742 153.172L214.8 119.554L214.944 119.352L214.815 119.141C205.434 103.717 192.215 91.9182 173.439 85.6443Z" stroke="white" stroke-width="0.75"/>
</g>
<g filter="url(#filter2_d)">
<path fill-rule="evenodd" clip-rule="evenodd" d="M76 1H135V231C101.95 223.129 78.6929 195.769 76 157.415V1Z" fill="#B5191A"/>
<path d="M76 0.625H75.625V1V157.415V157.428L75.6259 157.441C78.3295 195.946 101.692 223.453 134.913 231.365L135.375 231.475V231V1V0.625H135H76Z" stroke="white" stroke-width="0.75"/>
</g>
<defs>
<filter id="filter0_d" x="21.25" y="31.25" width="258.5" height="261.5" filterUnits="userSpaceOnUse" color-interpolation-filters="sRGB">
<feFlood flood-opacity="0" result="BackgroundImageFix"/>
<feColorMatrix in="SourceAlpha" type="matrix" values="0 0 0 0 0 0 0 0 0 0 0 0 0 0 0 0 0 0 127 0"/>
<feOffset dy="4"/>
<feGaussianBlur stdDeviation="2"/>
<feColorMatrix type="matrix" values="0 0 0 0 0 0 0 0 0 0 0 0 0 0 0 0 0 0 0.25 0"/>
<feBlend mode="normal" in2="BackgroundImageFix" result="effect1_dropShadow"/>
<feBlend mode="normal" in="SourceGraphic" in2="effect1_dropShadow" result="shape"/>
</filter>
<filter id="filter1_d" x="121.084" y="85.1115" width="156.856" height="198.639" filterUnits="userSpaceOnUse" color-interpolation-filters="sRGB">
<feFlood flood-opacity="0" result="BackgroundImageFix"/>
<feColorMatrix in="SourceAlpha" type="matrix" values="0 0 0 0 0 0 0 0 0 0 0 0 0 0 0 0 0 0 127 0"/>
<feOffset dy="4"/>
<feGaussianBlur stdDeviation="2"/>
<feColorMatrix type="matrix" values="0 0 0 0 0 0 0 0 0 0 0 0 0 0 0 0 0 0 0.25 0"/>
<feBlend mode="normal" in2="BackgroundImageFix" result="effect1_dropShadow"/>
<feBlend mode="normal" in="SourceGraphic" in2="effect1_dropShadow" result="shape"/>
</filter>
<filter id="filter2_d" x="71.25" y="0.25" width="68.5" height="239.7" filterUnits="userSpaceOnUse" color-interpolation-filters="sRGB">
<feFlood flood-opacity="0" result="BackgroundImageFix"/>
<feColorMatrix in="SourceAlpha" type="matrix" values="0 0 0 0 0 0 0 0 0 0 0 0 0 0 0 0 0 0 127 0"/>
<feOffset dy="4"/>
<feGaussianBlur stdDeviation="2"/>
<feColorMatrix type="matrix" values="0 0 0 0 0 0 0 0 0 0 0 0 0 0 0 0 0 0 0.25 0"/>
<feBlend mode="normal" in2="BackgroundImageFix" result="effect1_dropShadow"/>
<feBlend mode="normal" in="SourceGraphic" in2="effect1_dropShadow" result="shape"/>
</filter>
</defs>
</svg>
