<svg width="1392" height="685" viewBox="0 0 1392 685" fill="none" xmlns="http://www.w3.org/2000/svg">
<path d="M172 1.10938C178.561 1.10869 615.794 1.58881 1225.49 1.60144" stroke="white" stroke-dasharray="10 10"/>
<path d="M1233.88 1.00105C1254.86 0.920126 1277.39 5.5243 1296.7 14.5319C1316.02 23.5395 1333.47 36.7635 1347.98 53.4005C1362.5 70.0375 1373.79 89.7403 1381.15 111.312C1388.52 132.883 1391.81 155.873 1390.83 178.885C1389.85 201.896 1384.62 224.449 1375.46 245.174C1366.29 265.898 1353.38 284.361 1337.52 299.44C1321.65 314.52 1303.16 325.902 1283.16 332.895C1263.16 339.888 1227.02 341.415 1222 340.912" stroke="white" stroke-dasharray="10 10"/>
<path d="M178 340.5C151.813 340.5 125.982 346.568 102.533 358.227C79.0845 369.887 58.6565 386.821 42.8515 407.701C27.0465 428.581 16.2945 452.839 11.4391 478.572C6.58355 504.306 7.75662 530.814 14.8662 556.018" stroke="white" stroke-dasharray="10 10"/>
<path d="M173 340.109C179.561 340.109 616.794 340.589 1226.49 340.601" stroke="white" stroke-dasharray="10 10"/>
</svg>
