<svg width="1396" height="680" viewBox="0 0 1396 680" fill="none" xmlns="http://www.w3.org/2000/svg">
<path d="M171.855 0.886719C178.417 0.886036 615.649 1.36615 1225.35 1.37878" stroke="white" stroke-dasharray="10 10"/>
<path d="M1225 1.25C1247.34 1.25 1269.47 5.66068 1290.1 14.2291C1310.73 22.7975 1329.47 35.355 1345.24 51.1816C1361.01 67.0081 1373.51 85.7922 1382 106.457C1390.5 127.121 1394.83 149.259 1394.75 171.602C1394.67 193.944 1390.18 216.051 1381.54 236.655C1372.9 257.259 1360.27 275.954 1344.39 291.668C1328.51 307.382 1309.68 319.807 1288.99 328.229C1268.29 336.65 1246.14 340.904 1223.8 340.746" stroke="white" stroke-width="0.5" stroke-dasharray="10 10"/>
<path d="M171 340.25C144.774 340.25 118.905 346.327 95.4217 358.003C71.9386 369.68 51.4804 386.639 35.6522 407.55C19.8239 428.461 9.05604 452.755 4.19339 478.526C-0.669273 504.297 0.505523 530.845 7.62561 556.085" stroke="white" stroke-width="0.5" stroke-dasharray="10 10"/>
<path d="M171 340.109C177.561 340.109 614.794 340.589 1224.49 340.601" stroke="white" stroke-dasharray="10 10"/>
</svg>
