<svg width="75" height="75" viewBox="0 0 75 75" fill="none" xmlns="http://www.w3.org/2000/svg">
<path d="M29.4434 52.2457L49.8605 37.5L29.4434 22.7543V52.2457Z" fill="white"/>
<path d="M37.5 0C16.8224 0 0 16.8224 0 37.5C0 58.1776 16.8224 75 37.5 75C58.1776 75 75 58.1776 75 37.5C75 16.8224 58.1776 0 37.5 0ZM54.8997 39.2814L28.5325 58.3244C28.1509 58.5999 27.6995 58.7404 27.2458 58.7404C26.9041 58.7404 26.5613 58.6608 26.2458 58.4994C25.5111 58.1237 25.0488 57.3681 25.0488 56.543V18.457C25.0488 17.6319 25.5111 16.8763 26.2458 16.5007C26.9804 16.1251 27.8635 16.1927 28.5325 16.6758L54.8997 35.7188C55.4717 36.1318 55.8105 36.7945 55.8105 37.5C55.8105 38.2055 55.4717 38.8683 54.8997 39.2814Z" fill="white"/>
</svg>
