<svg width="82" height="82" viewBox="0 0 82 82" fill="none" xmlns="http://www.w3.org/2000/svg">
<g clip-path="url(#clip0)">
<path d="M9.56738 68.433H56.014V74.106H9.56738V68.433Z" fill="#C23A3A"/>
<path d="M71.2714 21.952H65.5821V7.84766H0V30.8107C0 36.7677 1.80426 42.4971 5.21759 47.3793C8.06349 51.4496 9.56746 56.2261 9.56746 61.1928V63.6283H56.014V61.1928C56.014 59.3954 56.2142 57.6237 56.6002 55.9008H71.2714C77.1872 55.9008 82 51.088 82 45.1728V32.6806C82 26.7649 77.1872 21.952 71.2714 21.952ZM40.848 43.2891C38.3668 45.7697 35.1756 47.039 32.1364 47.039C29.5807 47.039 27.1321 46.1419 25.3034 44.3132C21.3002 40.3093 21.7594 33.3363 26.3276 28.7687C28.4872 26.6085 31.2511 25.2865 34.1095 25.0457C37.1193 24.7917 39.8777 25.7501 41.8715 27.7446C45.8754 31.7478 45.4156 38.7209 40.848 43.2891ZM77.1909 45.1722C77.1909 48.4366 74.5352 51.0917 71.2714 51.0917H58.2331C58.8286 49.8036 59.5381 48.5611 60.3645 47.3793C63.7778 42.4977 65.5821 36.7684 65.5821 30.8107V26.7611H71.2714C74.5358 26.7611 77.1909 29.4162 77.1909 32.6806V45.1722Z" fill="#C23A3A"/>
<path d="M38.5909 33.9838C37.8602 34.1852 37.4936 34.2872 36.8511 34.9291C36.2092 35.571 36.1072 35.9382 35.9058 36.6689C35.6349 37.648 35.2645 38.9893 33.7249 40.5283C32.8678 41.386 32.072 41.8802 31.3657 42.1968C33.3477 42.4727 35.6662 41.6694 37.4473 39.8883C39.2841 38.0515 40.0805 35.6435 39.727 33.6228C39.3104 33.7836 38.9287 33.8906 38.5909 33.9838Z" fill="#C23A3A"/>
<path d="M35.7975 29.866C35.551 29.8322 35.297 29.8153 35.0373 29.8153C34.8653 29.8153 34.6908 29.8228 34.5137 29.8378C32.7851 29.9836 31.0854 30.8113 29.7278 32.1689C27.8916 34.005 27.0946 36.413 27.4481 38.4343C27.8653 38.2736 28.247 38.1666 28.5848 38.0734C29.3155 37.8713 29.6827 37.7699 30.3246 37.1281C30.9671 36.4856 31.0685 36.119 31.2705 35.3882C31.5408 34.4085 31.9118 33.0679 33.4508 31.5289C34.3035 30.6761 35.0949 30.1825 35.7975 29.866Z" fill="#C23A3A"/>
</g>
<defs>
<clipPath id="clip0">
<rect width="82" height="82" fill="white"/>
</clipPath>
</defs>
</svg>
