<svg width="75" height="77" viewBox="0 0 75 77" fill="none" xmlns="http://www.w3.org/2000/svg">
<path d="M9.2666 70.5833H16.9666V75.7166C16.9666 76.4253 16.392 76.9999 15.6833 76.9999H10.5499C9.84117 76.9999 9.2666 76.4253 9.2666 75.7166V70.5833Z" fill="white"/>
<path d="M58.0332 70.5833H65.7332V75.7166C65.7332 76.4253 65.1586 76.9999 64.4499 76.9999H59.3165C58.6078 76.9999 58.0332 76.4253 58.0332 75.7166V70.5833Z" fill="white"/>
<path d="M40.0666 15.3999H34.9332C34.2245 15.3999 33.6499 15.9745 33.6499 16.6832V19.2499C33.6499 19.9587 34.2245 20.5332 34.9332 20.5332H40.0666C40.7753 20.5332 41.3499 19.9587 41.3499 19.2499V16.6832C41.3499 15.9745 40.7753 15.3999 40.0666 15.3999Z" fill="white"/>
<path d="M49.05 0H25.95C24.5324 0 23.3833 1.14914 23.3833 2.56667V10.2667C23.3833 11.6842 24.5324 12.8333 25.95 12.8333H49.05C50.4675 12.8333 51.6166 11.6842 51.6166 10.2667V2.56667C51.6166 1.14914 50.4675 0 49.05 0ZM44.8278 7.32783L43.5445 8.61117C43.1773 8.98136 42.6227 9.09262 42.1412 8.89269C41.6596 8.69276 41.3469 8.22137 41.35 7.7H31.0833C30.3745 7.7 29.8 7.12543 29.8 6.41667C29.8 5.7079 30.3745 5.13333 31.0833 5.13333H41.35C41.348 4.79222 41.4819 4.46436 41.7221 4.22217C41.9631 3.97922 42.2911 3.84256 42.6333 3.84256C42.9755 3.84256 43.3035 3.97922 43.5445 4.22217L44.8278 5.5055C45.0707 5.74647 45.2074 6.07448 45.2074 6.41667C45.2074 6.75885 45.0707 7.08687 44.8278 7.32783Z" fill="white"/>
<path d="M21.3429 49.9474L25.0646 48.3433L20.9836 43.6334L16.6973 48.3818L20.3034 49.9346C20.6351 50.0736 21.0079 50.0782 21.3429 49.9474Z" fill="white"/>
<path d="M53.182 40.7587C52.6874 40.9695 52.1541 41.0745 51.6164 41.0667C51.1003 41.0657 50.5897 40.9609 50.1149 40.7587L45.8799 38.9492L43.5057 41.734L56.3391 56.9158C56.7997 57.4545 56.7365 58.2646 56.1979 58.7253C55.6592 59.186 54.8491 59.1228 54.3884 58.5842L42.1325 44.0183L37.7949 45.892C37.295 46.1004 36.758 46.2051 36.2164 46.2C35.7003 46.199 35.1897 46.0943 34.7149 45.892L30.4927 44.0825L27.695 47.4833L35.8955 56.9287C36.3265 57.4637 36.2596 58.2432 35.7439 58.6971C35.2281 59.1509 34.4465 59.1181 33.9705 58.6227L26.8352 50.4093L22.3307 52.3343C21.8501 52.5295 21.335 52.6255 20.8164 52.6167C20.3003 52.6157 19.7897 52.5109 19.3149 52.3087L14.8874 50.4093L6.69971 59.521V60.3167C6.69971 61.0254 7.27428 61.6 7.98304 61.6H67.0164C67.7251 61.6 68.2997 61.0254 68.2997 60.3167V51.6285L57.5326 38.8978L53.182 40.7587Z" fill="white"/>
<path d="M36.7941 43.5307L40.4002 41.9778L36.3706 37.2167L32.2896 42.042L35.7674 43.5307C36.0947 43.6735 36.4667 43.6735 36.7941 43.5307Z" fill="white"/>
<path d="M67.0164 25.6667H7.98304C7.27428 25.6667 6.69971 26.2413 6.69971 26.9501V55.6839L19.0454 41.9394C19.5469 41.4121 20.2427 41.1136 20.9704 41.1136C21.6981 41.1136 22.3939 41.4121 22.8954 41.9394L25.9497 45.4942L34.4197 35.5484C34.9193 35.0177 35.6158 34.7167 36.3447 34.7167C37.0736 34.7167 37.7701 35.0177 38.2697 35.5484L41.8759 39.7834L49.8197 30.4151C50.3193 29.8843 51.0158 29.5834 51.7447 29.5834C52.4736 29.5834 53.1701 29.8843 53.6697 30.4151L68.2997 47.6502V26.9501C68.2997 26.2413 67.7251 25.6667 67.0164 25.6667Z" fill="white"/>
<path d="M52.1942 38.3972L55.8004 36.8444L51.7707 32.0833L47.6641 36.8957L51.1547 38.3972C51.4857 38.5439 51.8632 38.5439 52.1942 38.3972Z" fill="white"/>
<path d="M69.5832 19.25H5.41654C2.58147 19.25 0.283203 21.5483 0.283203 24.3833V62.8833C0.283203 65.7184 2.58147 68.0167 5.41654 68.0167H69.5832C72.4183 68.0167 74.7165 65.7184 74.7165 62.8833V24.3833C74.7165 21.5483 72.4183 19.25 69.5832 19.25ZM70.8665 60.3167C70.8665 62.443 69.1428 64.1667 67.0165 64.1667H7.9832C5.85691 64.1667 4.1332 62.443 4.1332 60.3167V26.95C4.1332 24.8237 5.85691 23.1 7.9832 23.1H67.0165C69.1428 23.1 70.8665 24.8237 70.8665 26.95V60.3167Z" fill="white"/>
</svg>
