<svg width="100" height="100" viewBox="0 0 100 100" fill="none" xmlns="http://www.w3.org/2000/svg">
<path d="M41.7188 76.5H45.0312V93.0625H41.7188V76.5Z" fill="#C23A3A"/>
<path d="M54.9688 77.078H58.2812V99.6875H54.9688V77.078Z" fill="#C23A3A"/>
<path d="M68.2188 68.2188H31.7812C30.8665 68.2188 30.125 68.9603 30.125 69.875V73.1875C30.125 74.1022 30.8665 74.8438 31.7812 74.8438H68.2188C69.1335 74.8438 69.875 74.1022 69.875 73.1875V69.875C69.875 68.9603 69.1335 68.2188 68.2188 68.2188Z" fill="#C23A3A"/>
<path d="M48.0788 56.6084C47.8209 56.5653 47.577 56.4618 47.3669 56.3064C47.1567 56.1509 46.9863 55.948 46.8697 55.7141L45.6606 53.3125H45.0312V64.9062H54.9688V53.3125H52.3353L49.5197 56.1447C49.3312 56.3274 49.1032 56.4643 48.8534 56.5448C48.6035 56.6252 48.3384 56.647 48.0788 56.6084Z" fill="#C23A3A"/>
<path d="M41.7188 51.6562C41.7188 51.217 41.8932 50.7957 42.2039 50.4851C42.5145 50.1745 42.9357 50 43.375 50H46.6875C46.9943 49.9965 47.2957 50.0802 47.5567 50.2415C47.8177 50.4028 48.0275 50.635 48.1616 50.9109L48.7909 52.1697L50.4803 50.4803C50.7961 50.1752 51.2172 50.0033 51.6562 50H56.625C57.0643 50 57.4855 50.1745 57.7961 50.4851C58.1068 50.7957 58.2812 51.217 58.2812 51.6562V64.9062H64.9062V36.75C64.9062 32.7966 63.3358 29.0052 60.5403 26.2097C57.7448 23.4142 53.9534 21.8438 50 21.8438C46.0466 21.8438 42.2552 23.4142 39.4597 26.2097C36.6642 29.0052 35.0938 32.7966 35.0938 36.75V64.9062H41.7188V51.6562ZM36.75 36.75C36.7539 33.2371 38.1512 29.8692 40.6352 27.3852C43.1192 24.9012 46.4871 23.5039 50 23.5V26.8125C47.3652 26.8151 44.8391 27.863 42.976 29.726C41.113 31.5891 40.0651 34.1152 40.0625 36.75H36.75Z" fill="#C23A3A"/>
<path d="M48.3438 0.3125H51.6562V10.25H48.3438V0.3125Z" fill="#C23A3A"/>
<path d="M13.6899 16.0387L16.0322 13.6964L23.0591 20.7233L20.7168 23.0656L13.6899 16.0387Z" fill="#C23A3A"/>
<path d="M0.3125 48.3438H10.25V51.6562H0.3125V48.3438Z" fill="#C23A3A"/>
<path d="M89.75 48.3438H99.6875V51.6562H89.75V48.3438Z" fill="#C23A3A"/>
<path d="M76.9253 20.7273L83.9522 13.7004L86.2945 16.0427L79.2676 23.0696L76.9253 20.7273Z" fill="#C23A3A"/>
</svg>
