<svg width="66" height="92" viewBox="0 0 66 92" fill="none" xmlns="http://www.w3.org/2000/svg">
<path d="M0.0776367 0V92H65.9217V0H0.0776367ZM62.9895 88.8856H3.00807V3.11442H62.9895V88.8856ZM19.0912 16.7619H17.8967C17.9218 16.5886 17.9841 16.4516 18.0824 16.3507C18.1805 16.2495 18.3189 16.1993 18.496 16.1993C18.6603 16.1993 18.797 16.2478 18.9072 16.3432C19.0197 16.4381 19.0796 16.5765 19.0912 16.7619ZM18.2736 34.2572C17.5916 34.2572 17.0481 34.0063 16.6412 33.5037C16.2351 33.0005 16.033 32.2856 16.033 31.3582C16.033 30.4296 16.2354 29.715 16.6412 29.2115C17.0481 28.7089 17.5916 28.458 18.2736 28.458C18.9542 28.458 19.4955 28.7103 19.8963 29.2144C20.2963 29.7194 20.497 30.4339 20.497 31.3582C20.497 32.2859 20.2963 33.0005 19.8963 33.5037C19.4958 34.0063 18.9556 34.2572 18.2736 34.2572ZM59.8751 6.22884H6.1225V85.7714H59.8751V6.22884ZM54.2302 39.5113V42.2425H11.0185V39.5113H54.2302ZM14.3229 31.3579C14.3229 29.8486 14.7402 28.7164 15.5745 27.9597C16.1965 27.3195 17.0959 26.9986 18.2736 26.9986C19.4508 26.9986 20.3511 27.3195 20.9722 27.9597C21.8016 28.7164 22.2177 29.8486 22.2177 31.3579C22.2177 32.8367 21.8019 33.9688 20.9722 34.7549C20.3511 35.3954 19.4508 35.7161 18.2736 35.7161C17.0959 35.7161 16.1965 35.3954 15.5745 34.7549C14.7402 33.9688 14.3229 32.8352 14.3229 31.3579ZM23.5041 35.4859V27.2497H25.3067L28.5772 32.993V27.2497H30.1814V35.4859H28.4607L25.1075 29.6418V35.4859H23.5041ZM31.6558 35.4859V27.2497H33.3676V35.4859H31.6558ZM37.0308 33.6109C37.4934 34.0314 38.0193 34.2419 38.6065 34.2419C39.1844 34.2419 39.6602 34.0761 40.0267 33.7445C40.3947 33.4131 40.6245 32.978 40.7081 32.4427H38.8011V31.0666H42.2316V35.4859H41.0911L40.9209 34.4579C40.5864 34.8472 40.2911 35.1217 40.0264 35.2821C39.5702 35.5589 39.0122 35.6988 38.3507 35.6988C37.2604 35.6988 36.3661 35.3207 35.668 34.5657C34.941 33.8053 34.5794 32.7669 34.5794 31.449C34.5794 30.1159 34.947 29.0477 35.6801 28.2449C36.4146 27.4412 37.3849 27.0395 38.5909 27.0395C39.6371 27.0395 40.4766 27.3042 41.1121 27.8348C41.7477 28.3655 42.1128 29.0278 42.2039 29.8217H40.51C40.3791 29.2597 40.0628 28.8661 39.5549 28.6432C39.2723 28.5197 38.956 28.4589 38.6137 28.4589C37.949 28.4589 37.4031 28.7098 36.9757 29.2095C36.5512 29.7098 36.337 30.4619 36.337 31.4646C36.3376 32.4739 36.5688 33.1905 37.0308 33.6109ZM48.7771 30.3907V27.2497H50.488V35.4859H48.7771V31.8089H45.5747V35.4859H43.8623V27.2497H45.5747V30.3907H48.7771ZM53.9277 35.4859V28.7089H51.4503V27.2497H58.1232V28.7089H55.6597V35.4859H53.9277ZM25.1078 15.7993H25.8446V16.5263H25.1078V15.7993ZM25.1078 17.6227H25.8446V18.3503H25.1078V17.6227ZM23.3034 15.7221V14.9824H23.99V15.7221H24.4212V16.2155H23.99V17.6167C23.99 17.7254 24.0036 17.7923 24.0319 17.8191C24.0601 17.8459 24.1446 17.8595 24.2859 17.8595C24.3064 17.8595 24.3292 17.8595 24.3528 17.858C24.3765 17.858 24.3992 17.8566 24.4212 17.8549V18.3751L24.0927 18.3881C23.7657 18.3987 23.5416 18.3425 23.4214 18.2185C23.3438 18.1386 23.3052 18.0155 23.3052 17.8505V16.2189H22.9357V15.7221H23.3034ZM20.1685 15.7027H20.8399V16.0892C20.9281 15.9536 21.0126 15.8544 21.0922 15.7947C21.2335 15.6875 21.4137 15.6341 21.632 15.6341C21.9048 15.6341 22.1272 15.7056 22.3019 15.8487C22.4744 15.9923 22.5617 16.2302 22.5617 16.5641V18.3503H21.8515V16.7366C21.8515 16.5967 21.8327 16.4903 21.7952 16.4159C21.7283 16.2789 21.5991 16.212 21.4091 16.212C21.1755 16.212 21.0152 16.3118 20.9278 16.511C20.8828 16.6169 20.8609 16.7507 20.8609 16.9139V18.3503H20.1682L20.1685 15.7027ZM17.5475 15.9957C17.7909 15.7515 18.1064 15.6286 18.4957 15.6286C18.7267 15.6286 18.9352 15.6704 19.1206 15.7532C19.3054 15.8354 19.4583 15.966 19.5782 16.1457C19.6869 16.3023 19.757 16.4862 19.7896 16.693C19.8086 16.8147 19.8161 16.9909 19.8133 17.2199H17.8826C17.8933 17.486 17.9853 17.6729 18.1594 17.7787C18.2653 17.8456 18.393 17.8785 18.5427 17.8785C18.7001 17.8785 18.8293 17.8381 18.9274 17.7568C18.9816 17.7136 19.0286 17.6527 19.0704 17.5751H19.7789C19.7599 17.7326 19.6748 17.8929 19.522 18.0541C19.2841 18.3125 18.9525 18.4403 18.5237 18.4403C18.1701 18.4403 17.859 18.3315 17.5899 18.1132C17.3197 17.8958 17.1847 17.5426 17.1847 17.0517C17.1833 16.5924 17.305 16.2403 17.5475 15.9957ZM15.1373 15.6984L15.6901 17.6542L16.2536 15.6984H16.9982L16.0408 18.3506H15.3086L14.3575 15.6984H15.1373ZM11.3749 14.7638H14.0049V15.3994H12.1071V16.1607H13.8491V16.7833H12.1071V17.7055H14.0925V18.3503H11.3749V14.7638ZM11.0185 20.8245H54.2302V23.5557H11.0185V20.8245ZM7.15343 27.2497H13.8241V28.7089H11.3614V35.4859H9.62939V28.7089H7.15371L7.15343 27.2497ZM12.289 53.6035L13.8835 48.6934L15.4779 53.6035H20.6406L16.4641 56.6375L18.0585 61.5461L13.882 58.5136L9.7061 61.5464L11.3005 56.6378L7.12372 53.6038L12.289 53.6035ZM18.1612 83.7001C13.2874 83.7001 9.3364 79.7494 9.3364 74.8753C9.3364 70.0012 13.2874 66.0505 18.1612 66.0505C23.0349 66.0505 26.9859 70.0012 26.9859 74.8753C26.9859 79.7494 23.0349 83.7001 18.1612 83.7001ZM42.2316 61.1205H23.7671V59.5633H42.2316V61.1205ZM42.2316 56.4489H23.7671V54.8917H42.2316V56.4489ZM42.2316 51.7772H23.7671V50.2203H42.2316V51.7772ZM56.2194 61.5464L52.0435 58.5139L47.8647 61.5464L49.4599 56.6378L45.2826 53.6038H50.4436L52.0374 48.6937L53.631 53.6038H58.7937L54.6163 56.6378L56.2194 61.5464ZM22.0277 70.2481L12.2175 75.8927L11.4404 74.5422L21.2505 68.8973L22.0277 70.2481ZM23.4525 72.7344L13.6424 78.3776L12.8652 77.0286L22.6753 71.3837L23.4525 72.7344ZM24.1149 73.8671L24.8903 75.2176L15.0747 80.8532L14.2993 79.5028L24.1149 73.8671Z" fill="#C23A3A"/>
</svg>
