<svg width="81" height="81" viewBox="0 0 81 81" fill="none" xmlns="http://www.w3.org/2000/svg">
<path d="M56.451 48.3696H24.5494C23.2831 48.3696 22.2656 49.5018 22.2656 50.7689V76.0094H58.7348V50.7689C58.7348 49.5018 57.7174 48.3696 56.451 48.3696ZM52.6121 70.2511H28.3883C27.5403 70.2511 26.8528 69.5636 26.8528 68.7156C26.8528 67.8676 27.5403 67.1801 28.3883 67.1801H52.6121C53.4601 67.1801 54.1477 67.8676 54.1477 68.7156C54.1477 69.5636 53.4601 70.2511 52.6121 70.2511ZM52.6121 64.109H28.3883C27.5403 64.109 26.8528 63.4214 26.8528 62.5734C26.8528 61.7254 27.5403 61.0379 28.3883 61.0379H52.6121C53.4601 61.0379 54.1477 61.7254 54.1477 62.5734C54.1477 63.4214 53.4601 64.109 52.6121 64.109ZM52.6121 57.9668H28.3883C27.5403 57.9668 26.8528 57.2792 26.8528 56.4312C26.8528 55.5832 27.5403 54.8957 28.3883 54.8957H52.6121C53.4601 54.8957 54.1477 55.5832 54.1477 56.4312C54.1477 57.2792 53.4601 57.9668 52.6121 57.9668Z" fill="#C23A3A"/>
<path d="M21.114 14.5876H13.0906C11.798 14.6244 10.7648 15.6748 10.749 16.9674V20.3459H21.114V14.5876Z" fill="#C23A3A"/>
<path d="M56.8154 7.37028C56.7996 6.07766 55.7664 5.02722 54.4738 4.99048H26.5266C25.234 5.02722 24.2008 6.07766 24.1851 7.37028V20.3459H56.8154V7.37028Z" fill="#C23A3A"/>
<path d="M70.2512 16.9674C70.2354 15.6748 69.2022 14.6244 67.9096 14.5876H59.8862V20.3459H70.2512V16.9674Z" fill="#C23A3A"/>
<path d="M74.8578 23.4171H6.14218C4.52266 23.4043 2.96462 24.0371 1.81221 25.1753C0.659805 26.3127 0.00749778 27.8632 0 29.4828V54.4541C0 57.8326 2.76368 60.654 6.14218 60.654H19.1943V50.769C19.1943 47.8133 21.5936 45.2986 24.5492 45.2986H56.4508C59.4064 45.2986 61.8057 47.7938 61.8057 50.769V60.654H74.8578C78.2596 60.624 81.0015 57.8566 81 54.4541V29.4828C80.9925 27.8632 80.3402 26.3127 79.1878 25.1753C78.0354 24.0371 76.4773 23.4043 74.8578 23.4171ZM22.8412 35.7014H9.02133C8.17333 35.7014 7.48578 35.0139 7.48578 34.1659C7.48578 33.3179 8.17333 32.6303 9.02133 32.6303H22.8412C23.6892 32.6303 24.3768 33.3179 24.3768 34.1659C24.3768 35.0139 23.6892 35.7014 22.8412 35.7014Z" fill="#C23A3A"/>
</svg>
