<svg width="101" height="55" viewBox="0 0 101 55" fill="none" xmlns="http://www.w3.org/2000/svg">
<path d="M40.7758 9.21188C46.0021 10.6804 50.6186 12.5457 55.0823 14.3493C67.8812 19.5235 78.934 23.988 98.0354 15.9915C98.1946 15.9254 98.3518 15.8599 98.5067 15.7969C98.6926 15.7214 98.8412 15.6426 99.0062 15.5284C99.6519 15.0811 100.105 14.3536 100.105 13.5682V5C100.105 2.23858 97.8664 0 95.105 0H4.89332C2.31513 0 0.225098 2.09003 0.225098 4.66822C0.225098 8.07036 3.78033 10.3833 7.04123 9.4132C14.6829 7.13982 26.7221 5.26772 40.7758 9.21188Z" fill="#C23A3A"/>
<path d="M100.104 18.7809C100.104 18.7809 100.104 18.7809 100.104 18.7809C100.018 18.808 99.935 18.8297 99.8555 18.8465C99.6959 18.8802 99.5358 18.9153 99.3855 18.9786C99.3583 18.99 99.3305 19.0017 99.3022 19.0137C91.3285 22.3523 84.6051 23.6255 78.6017 23.6255C69.2838 23.6255 61.7042 20.5589 53.8524 17.3862C49.4712 15.6145 44.9409 13.7843 39.8884 12.3663C22.9952 7.62375 8.97387 11.8897 3.00123 14.3306C1.26761 15.0391 0.226074 16.7676 0.226074 18.6405V49.0821C0.226074 51.8436 2.46465 54.0821 5.22607 54.0821H95.1057C97.8671 54.0821 100.106 51.8435 100.106 49.0821V18.7822C100.106 18.7815 100.105 18.7809 100.104 18.7809ZM15.0736 34.4182C13.121 36.371 9.95498 36.3711 8.00228 34.4183L7.4378 33.8539C5.48523 31.9012 5.48526 28.7354 7.43786 26.7828L8.00234 26.2184C9.95503 24.2657 13.121 24.2658 15.0736 26.2185L15.638 26.783C17.5904 28.7356 17.5904 31.9011 15.6381 33.8537L15.0736 34.4182ZM60.1327 33.1609H26.885C25.3151 33.1609 24.0425 31.8883 24.0425 30.3184C24.0425 28.7486 25.3151 27.476 26.885 27.476H57.2905C58.8603 27.476 60.1329 28.7486 60.1329 30.3184V33.1606C60.1329 33.1608 60.1328 33.1609 60.1327 33.1609ZM96.5127 49.1655C96.5127 49.9575 95.8707 50.5995 95.0787 50.5995H76.198C75.406 50.5995 74.764 49.9575 74.764 49.1655C74.764 48.3735 75.406 47.7315 76.198 47.7315H95.0787C95.8707 47.7315 96.5127 48.3735 96.5127 49.1655ZM96.5127 43.4292C96.5127 44.2212 95.8707 44.8631 95.0788 44.8631H76.1979C75.406 44.8631 74.764 44.2212 74.764 43.4292C74.764 42.6373 75.406 41.9953 76.1979 41.9953H95.0788C95.8707 41.9953 96.5127 42.6373 96.5127 43.4292ZM96.5127 37.6934C96.5127 38.4853 95.8707 39.1273 95.0788 39.1273H76.1979C75.406 39.1273 74.764 38.4853 74.764 37.6934C74.764 36.9014 75.406 36.2595 76.1979 36.2595H95.0788C95.8707 36.2595 96.5127 36.9014 96.5127 37.6934Z" fill="#C23A3A"/>
</svg>
